<svg width="56" height="46" viewBox="0 0 56 46" fill="none" xmlns="http://www.w3.org/2000/svg">
<g clip-path="url(#clip0_8030_541)">
<path d="M51.9585 32.668L49.3505 37.1204L46.7762 32.668H43.4951L47.9708 39.9538V45.2327H50.7639V39.9538L55.2059 32.668H51.9585Z" fill="#5C068C"/>
<path d="M7.73988 38.5371C8.31196 37.9468 8.598 37.2216 8.598 36.3615C8.598 34.2871 6.94907 32.668 4.82902 32.668H0V45.2327H5.48522C7.75671 45.2327 9.45612 43.6136 9.45612 41.4717C9.45612 40.2068 8.85039 39.1612 7.73988 38.5371ZM4.57663 37.6939H2.79309V35.2484H4.57663C5.31696 35.2484 5.88904 35.7712 5.88904 36.4796C5.87222 37.1879 5.33379 37.6939 4.57663 37.6939ZM2.79309 40.1225H5.33379C6.14143 40.1225 6.71351 40.6453 6.71351 41.4043C6.71351 42.1632 6.14143 42.6692 5.33379 42.6692H2.79309V40.1225Z" fill="#5C068C"/>
<path d="M37.875 32.668H33.9377V45.2327H37.875C41.4925 45.2327 44.3193 42.4668 44.3193 38.9419C44.3193 35.417 41.4925 32.668 37.875 32.668ZM41.4925 38.9588C41.4925 41.1007 39.9782 42.6523 37.875 42.6523H36.7308V35.2652H37.875C39.9782 35.2484 41.4925 36.8169 41.4925 38.9588Z" fill="#5C068C"/>
<path d="M26.9212 0.556641L21.5537 17.1016L26.9212 21.0144L32.2886 17.1016L26.9212 0.556641Z" fill="#5C068C"/>
<path d="M23.607 10.7949H12.8721L21.5542 17.1026L23.607 10.7949Z" fill="#126BFA"/>
<path d="M30.2363 10.7949H40.9544L32.2891 17.1026L30.2363 10.7949Z" fill="#E4002B"/>
<path d="M32.2893 17.1016L26.9219 21.0143L35.604 27.3389L32.2893 17.1016Z" fill="#126BFA"/>
<path d="M26.9224 21.0143L18.2402 27.3389L21.5549 17.1016L26.9224 21.0143Z" fill="#E4002B"/>
<path d="M26.9213 32.3477L20.6621 45.2328H23.6235L24.6498 43.0572H29.1928L30.2192 45.2328H33.1805L26.9213 32.3477ZM25.7603 40.696L26.9213 38.2337L28.0823 40.696H25.7603Z" fill="#5C068C"/>
<path d="M19.4501 36.429C19.4501 34.3208 17.7675 32.668 15.6138 32.668H10.8857V45.2327H13.6788V40.1562H14.0995L17.2291 45.2327H20.4765L17.1113 39.9032C18.5078 39.3467 19.4501 37.9637 19.4501 36.429ZM15.3446 37.7445H13.662V35.2484H15.3446C16.1859 35.2484 16.7411 35.7543 16.7411 36.5133C16.7411 37.2554 16.1859 37.7445 15.3446 37.7445Z" fill="#5C068C"/>
</g>
<defs>
<clipPath id="clip0_8030_541">
<rect width="55.2056" height="45.2858" fill="white" transform="translate(0 0.681641)"/>
</clipPath>
</defs>
</svg>
