<?xml version="1.0" encoding="utf-8"?>
<svg version="1.1" xmlns="http://www.w3.org/2000/svg" xmlns:xlink="http://www.w3.org/1999/xlink" x="0px" y="0px"
	 viewBox="0 0 150 150" style="enable-background:new 0 0 150 150;" xml:space="preserve">
	<g fill="currentColor" class="logo-text">
		<path class="st0" d="M1.5,70.4l9.5,1h0c0.1,0,0.2-0.1,0.2-0.2l0.7-6.4c0-0.1-0.1-0.3-0.2-0.3c0,0,0,0,0,0l-1.5-0.2
			c-0.1,0-0.1,0-0.2,0.1c-0.1,0-0.1,0.1-0.1,0.2l-0.5,4.4l-2.2-0.2l0.3-3c0-0.1-0.1-0.3-0.2-0.3l-1.5-0.2c-0.1,0-0.3,0.1-0.3,0.2
			l-0.3,3l-1.8-0.2L4,64.1c0-0.1-0.1-0.3-0.2-0.3c0,0,0,0,0,0l-1.5-0.2c-0.1,0-0.1,0-0.2,0.1C2,63.7,2,63.8,2,63.8l-0.7,6.3
			C1.3,70.3,1.4,70.4,1.5,70.4z"/>
		<path class="st0" d="M43.4,19.2c0,0.1,0.1,0.1,0.2,0.1v0c0,0,0.1,0,0.1,0l1.6-0.8c0.1,0,0.1-0.1,0.1-0.1c0-0.1,0-0.1,0-0.2
			L43.9,15l1.3-0.6c1-0.5,1.7-1.1,2-1.8c0.4-0.8,0.3-1.6-0.2-2.6c-0.9-1.8-2.5-2.2-4.6-1.1l-3.1,1.6c-0.1,0.1-0.2,0.2-0.1,0.3
			L43.4,19.2z M42,11.2l1.1-0.5c0.5-0.3,0.9-0.4,1.2-0.3c0.2,0.1,0.4,0.3,0.6,0.6c0.2,0.3,0.2,0.6,0.1,0.8c-0.1,0.3-0.4,0.6-1,0.8
			L43,13.2L42,11.2L42,11.2z"/>
		<path class="st0" d="M55.3,14c0,0.1,0.2,0.2,0.3,0.2c0,0,0,0,0,0l1.8-0.5c0.1,0,0.2-0.2,0.2-0.3l-0.9-3.5l1.1-0.3l2.6,3.2
			c0.1,0.1,0.2,0.1,0.3,0.1l2-0.5c0.1,0,0.2-0.2,0.2-0.3c0,0,0-0.1-0.1-0.1l-2.9-3.4c0.9-0.7,1.3-1.7,0.9-2.9c-0.5-1.9-2-2.7-4-2.1
			l-3.7,1c-0.1,0-0.2,0.2-0.2,0.3c0,0,0,0,0,0L55.3,14z M57,5.5c1.1-0.3,1.4,0.3,1.5,0.7c0.1,0.6,0.2,1.1-1.3,1.5L56.2,8l-0.6-2.1
			L57,5.5z"/>
		<path class="st0" d="M132,46.1c0,0.1,0,0.1,0,0.2l1.4,3.2c0.5,1.1,1.1,1.9,1.8,2.3c0.3,0.2,0.7,0.3,1.1,0.3c0.4,0,0.7-0.1,1.1-0.2
			c1.2-0.5,1.7-1.1,1.8-2.2c0.7,0.5,1.5,0.5,2.4,0.1c1.5-0.8,1.8-2.2,0.9-4.2l-1.4-3.2c-0.1-0.1-0.2-0.2-0.3-0.1c0,0,0,0,0,0
			l-8.7,3.8C132,45.9,132,46,132,46.1z M140.2,44.9l0.6,1.4c0.3,0.6,0.1,1.1-0.4,1.3c-0.5,0.2-1,0-1.3-0.6l-0.6-1.4L140.2,44.9z
			 M136.7,46.4l0.6,1.4c0.2,0.4,0.2,0.8,0.1,1c-0.1,0.2-0.3,0.4-0.7,0.6c-0.7,0.3-1.2,0.1-1.6-0.7l-0.6-1.4L136.7,46.4z"/>
		<path class="st0" d="M127.3,38.4L127.3,38.4c0,0.1,0,0.1,0,0.2l1,1.5c0.1,0.1,0.2,0.1,0.4,0.1l7.9-5.3c0.1-0.1,0.1-0.2,0.1-0.4
			l-1-1.5c0-0.1-0.1-0.1-0.2-0.1c-0.1,0-0.1,0-0.2,0l-7.9,5.3C127.3,38.3,127.3,38.4,127.3,38.4z"/>
		<path class="st0" d="M123.4,32.2L123.4,32.2c0.7,0,1.5-0.3,2.1-1c1.4-1.4,0.7-3.1,0.1-4.5c-0.4-0.9-0.7-1.7-0.3-2.1
			c0.4-0.4,0.8-0.3,1.4,0.2c0.6,0.6,0.5,1.3,0.2,1.8c-0.1,0.1,0,0.3,0.1,0.3l1.5,0.8c0.1,0.1,0.3,0,0.3-0.1c0,0,0,0,0,0
			c0.6-1.4,0.3-3-0.8-4.2c-1.4-1.4-3.2-1.6-4.4-0.4c-1.3,1.2-0.6,2.9-0.1,4.3c0.4,1,0.8,1.9,0.3,2.4c-0.3,0.2-0.5,0.3-0.8,0.3
			c-0.3-0.1-0.6-0.2-0.9-0.6c-0.6-0.6-0.7-1.3-0.3-2.3c0-0.1,0-0.3-0.1-0.3l-1.5-0.6c-0.1-0.1-0.3,0-0.3,0.1
			c-0.7,1.4-0.3,3.2,0.9,4.4C121.6,31.8,122.5,32.2,123.4,32.2z"/>
		<path class="st0" d="M136.8,58.8L136.8,58.8c0,0.1,0,0.1,0,0.2l1.2,5.8c0,0.1,0.2,0.2,0.3,0.2c0,0,0,0,0,0l1.5-0.3
			c0.1,0,0.2-0.2,0.2-0.3c0,0,0,0,0,0l-0.8-3.8l7.6-1.6c0.1,0,0.1-0.1,0.2-0.1c0-0.1,0-0.1,0-0.2l-0.4-1.8c0-0.1-0.2-0.2-0.3-0.2
			c0,0,0,0,0,0l-9.3,2C136.8,58.7,136.8,58.8,136.8,58.8z"/>
		<path class="st0" d="M95.7,14.7C95.7,14.7,95.7,14.7,95.7,14.7L95.7,14.7l6,2.4c0,0,0.1,0,0.1,0c0.1,0,0.2-0.1,0.2-0.2l0.6-1.4
			c0.1-0.1,0-0.3-0.1-0.3c0,0,0,0,0,0l-4.1-1.6l0.8-2l2.8,1.1c0.1,0.1,0.3,0,0.3-0.1c0,0,0,0,0,0l0.6-1.4c0.1-0.1,0-0.3-0.1-0.3
			c0,0,0,0,0,0L100,9.6l0.7-1.6l3.9,1.6c0.1,0.1,0.3,0,0.3-0.1c0,0,0,0,0,0l0.6-1.4c0-0.1,0-0.1,0-0.2c0-0.1-0.1-0.1-0.1-0.1
			l-5.9-2.3c-0.1-0.1-0.3,0-0.3,0.1c0,0,0,0,0,0l-3.5,8.9C95.6,14.5,95.6,14.6,95.7,14.7z"/>
		<path class="st0" d="M81.8,11.5l1.8,0.3c0.2,0,0.3-0.1,0.3-0.2l0.6-3.8l3.1,0.5L87,12.1h0c0,0.1,0.1,0.3,0.2,0.3l1.8,0.3
			c0.1,0,0.1,0,0.2,0c0.1,0,0.1-0.1,0.1-0.2l1.6-9.4c0-0.1,0-0.1,0-0.2c0-0.1-0.1-0.1-0.2-0.1l-1.8-0.3c-0.1,0-0.3,0.1-0.3,0.2
			c0,0,0,0,0,0L88,6.2l-3.1-0.5l0.6-3.5c0-0.1,0-0.1,0-0.2c0-0.1-0.1-0.1-0.2-0.1l-1.8-0.3c-0.1,0-0.3,0.1-0.3,0.2c0,0,0,0,0,0
			l-1.6,9.4c0,0.1,0,0.1,0,0.2C81.7,11.5,81.8,11.5,81.8,11.5z"/>
		<path class="st0" d="M69,11.5L69,11.5l6.5-0.3c0.1,0,0.1,0,0.2-0.1c0,0,0.1-0.1,0.1-0.2l-0.1-1.5c0-0.1-0.1-0.2-0.3-0.2L71,9.3
			l-0.1-2.2l3-0.1c0.1,0,0.2-0.1,0.2-0.3l-0.1-1.5c0-0.1,0-0.1-0.1-0.2C74,5,73.9,5,73.8,5l-3,0.1l-0.1-1.8L75,3.2
			c0.1,0,0.2-0.1,0.2-0.3l-0.1-1.5c0-0.1,0-0.1-0.1-0.2c-0.1,0-0.1-0.1-0.2-0.1l-6.3,0.3c-0.1,0-0.2,0.1-0.2,0.3l0.4,9.5
			C68.8,11.4,68.9,11.5,69,11.5z"/>
		<path class="st0" d="M108.8,21c0.1,0.1,0.3,0,0.3-0.1c0,0,0,0,0,0l3.3-4.9l-0.5,6.9c0,0.1,0,0.2,0.1,0.2l1.5,1
			c0.1,0.1,0.3,0,0.3-0.1c0,0,0,0,0,0l5.3-7.9c0.1-0.1,0-0.3-0.1-0.3c0,0,0,0,0,0l-1.4-1c-0.1-0.1-0.3,0-0.3,0.1c0,0,0,0,0,0
			l-3.1,4.7l0.5-6.6c0-0.1,0-0.2-0.1-0.2l-1.6-1.1c-0.1,0-0.1-0.1-0.2,0c-0.1,0-0.1,0.1-0.2,0.1l-5.3,7.9c0,0.1-0.1,0.1,0,0.2
			c0,0.1,0.1,0.1,0.1,0.2L108.8,21z"/>
		<path class="st0" d="M30.9,28.5c0,0.1,0.1,0.1,0.2,0.1l0,0c0.1,0,0.1,0,0.2-0.1l1.2-1c0.1-0.1,0.1-0.2,0-0.4l-3.7-4.4l5,3.4
			c0.1,0.1,0.2,0.1,0.3,0l1.1-0.9c0.1-0.1,0.1-0.2,0.1-0.3l-2.5-5.6l3.7,4.4c0.1,0.1,0.2,0.1,0.4,0l1.2-1c0.1-0.1,0.1-0.2,0-0.4
			l-6.1-7.3h0c-0.1-0.1-0.2-0.1-0.4,0l-2,1.7c-0.1,0.1-0.1,0.2-0.1,0.3l2.5,5.5l-5-3.4c-0.1-0.1-0.2-0.1-0.3,0l-2,1.6
			c-0.1,0.1-0.1,0.2,0,0.4L30.9,28.5z"/>
		<path class="st0" d="M116.5,128.8c-1.1,0.3-2,0.5-2.4,0c-0.2-0.3-0.3-0.6-0.2-0.8c0.1-0.3,0.3-0.5,0.7-0.8c0.7-0.5,1.3-0.5,2.3,0
			c0.1,0.1,0.3,0,0.3-0.1l0.8-1.4c0.1-0.1,0-0.3-0.1-0.3c-1.3-0.8-3.1-0.7-4.5,0.4c-1.8,1.4-2.2,3.1-0.9,4.7c1.2,1.6,3,1,4.5,0.6
			c1-0.3,1.8-0.5,2.1-0.1c0.3,0.4,0.2,0.9-0.4,1.3c-0.7,0.5-1.4,0.3-1.8,0c-0.1-0.1-0.3,0-0.3,0.1l-1,1.4c0,0.1-0.1,0.1,0,0.2
			c0,0.1,0.1,0.1,0.1,0.2c0.6,0.3,1.2,0.5,1.9,0.5c0.8,0,1.7-0.3,2.4-0.9c1.6-1.2,1.9-3,0.9-4.3
			C119.6,127.9,117.9,128.4,116.5,128.8z"/>
		<path class="st0" d="M125.9,114.1c0-0.1-0.1-0.1-0.2-0.1c-0.1,0-0.2,0-0.2,0.1l-1.2,1.4c-0.1,0.1-0.1,0.2,0,0.3l1.1,1.6l-1.7,2
			l-1.7-0.9c-0.1-0.1-0.2,0-0.3,0.1l-1.2,1.4c-0.1,0.1-0.1,0.1-0.1,0.2c0,0.1,0.1,0.1,0.1,0.2l9,4.3c0.1,0,0.2,0,0.3-0.1l1.5-1.7
			c0.1-0.1,0.1-0.2,0-0.3L125.9,114.1z M125.5,120.2l1-1.2l1.7,2.6L125.5,120.2z"/>
		<path class="st0" d="M104.9,136c-1.1,0.1-2,0.1-2.3-0.5c-0.2-0.3-0.2-0.6,0-0.9c0.1-0.2,0.4-0.5,0.8-0.7c0.8-0.4,1.4-0.2,2.3,0.4
			c0.1,0.1,0.3,0.1,0.3,0l1.1-1.2c0.1-0.1,0.1-0.3,0-0.3c-1.1-1.1-2.9-1.3-4.5-0.5c-1,0.5-1.7,1.1-2,1.9c-0.3,0.8-0.3,1.6,0.2,2.6
			c0.9,1.8,2.7,1.6,4.3,1.5c1-0.1,1.8-0.1,2.1,0.3c0.1,0.2,0.1,0.5,0,0.7c-0.1,0.2-0.3,0.4-0.7,0.5c-0.8,0.4-1.4,0-1.8-0.3
			c-0.1-0.1-0.2-0.1-0.3,0l-1.3,1.2c-0.1,0-0.1,0.1-0.1,0.2c0,0.1,0,0.1,0.1,0.2c0.7,0.6,1.5,0.9,2.4,0.9c0.6,0,1.2-0.1,1.8-0.4
			c1.8-0.9,2.5-2.5,1.7-4.1C108.1,135.8,106.3,135.9,104.9,136z"/>
		<path class="st0" d="M141.3,93.3L141.3,93.3c-3.1-1.1-5.4-0.2-6.2,2.2c-0.6,1.8-0.1,3.3,1.3,4.4c0.1,0,0.1,0.1,0.2,0
			c0.1,0,0.1-0.1,0.2-0.1l1-1.5c0.1-0.1,0.1-0.2,0-0.3c-0.9-0.8-0.9-1.3-0.7-2c0.1-0.4,0.4-0.7,0.7-0.9c0.6-0.3,1.5-0.2,2.8,0.2
			c1,0.3,1.7,0.7,2.1,1.2c0.4,0.4,0.5,0.9,0.3,1.4c-0.3,0.9-1,1-1.6,1c-0.1,0-0.2,0.1-0.3,0.2l-0.2,1.7c0,0.1,0,0.1,0.1,0.2
			c0,0.1,0.1,0.1,0.2,0.1c0.1,0,0.2,0,0.4,0c1.7,0,2.8-0.8,3.3-2.5c0.4-1.2,0.3-2.4-0.3-3.3C143.9,94.6,142.9,93.9,141.3,93.3z"/>
		<path class="st0" d="M148.7,70.9L148.7,70.9c0-0.1-0.1-0.2-0.3-0.2l-9.5,0.1c-0.1,0-0.3,0.1-0.2,0.3l0.1,6.5
			c0,0.1,0.1,0.2,0.3,0.2h0l1.5,0c0.1,0,0.2-0.1,0.2-0.3l-0.1-4.4l2.2,0l0,3c0,0.1,0.1,0.2,0.3,0.2h0l1.5,0c0.1,0,0.2-0.1,0.2-0.3
			l0-3l1.8,0l0.1,4.2c0,0.1,0,0.1,0.1,0.2c0,0,0.1,0.1,0.2,0.1l1.5,0c0.1,0,0.2-0.1,0.2-0.3L148.7,70.9z"/>
		<path class="st0" d="M131.9,104.4c-0.1-0.1-0.3,0-0.3,0.1l-3,5.2c-0.1,0.1,0,0.3,0.1,0.3c0,0,0,0,0,0l1.3,0.8
			c0.1,0.1,0.3,0,0.3-0.1l1.9-3.4l6.7,3.9c0.1,0,0.1,0,0.2,0c0.1,0,0.1-0.1,0.2-0.1l0.9-1.6c0.1-0.1,0-0.3-0.1-0.3L131.9,104.4z"/>
		<path class="st0" d="M93.5,136.1C93.5,136.1,93.5,136.1,93.5,136.1L93.5,136.1l-1.8,0.4c-0.1,0-0.2,0.2-0.2,0.3l0.9,3.5l-1.1,0.3
			l-2.6-3.2c-0.1-0.1-0.2-0.1-0.3-0.1l-2,0.5c-0.1,0-0.2,0.2-0.2,0.3c0,0,0,0.1,0.1,0.1l2.9,3.4c-0.9,0.7-1.3,1.7-1,2.9
			c0.4,1.5,1.4,2.3,2.8,2.3c0.3,0,0.7,0,1.1-0.1l3.7-0.9c0.1,0,0.2-0.2,0.2-0.3l-2.3-9.3C93.8,136.1,93.6,136,93.5,136.1z M92,144.7
			c-0.5,0.1-0.8,0.1-1.1-0.1c-0.2-0.1-0.4-0.4-0.4-0.7c-0.1-0.4-0.1-0.7,0.1-0.9c0.2-0.2,0.6-0.4,1.2-0.6l1.1-0.3v0l0.5,2.1
			L92,144.7z"/>
		<path class="st0" d="M51.9,134.5c-0.1-0.1-0.3,0-0.3,0.1l-2.3,5.3l0.8-6c0-0.1,0-0.2-0.1-0.3l-1.3-0.6c-0.1,0-0.2,0-0.3,0.1
			l-3.9,4.7l2.3-5.3c0.1-0.1,0-0.3-0.1-0.3c0,0,0,0,0,0l-1.5-0.6c-0.1-0.1-0.3,0-0.3,0.1l-3.8,8.7c0,0.1,0,0.1,0,0.2
			c0,0.1,0.1,0.1,0.1,0.1l2.4,1c0.1,0,0.2,0,0.3-0.1l3.8-4.7l-0.9,6c0,0.1,0,0.2,0.1,0.3l2.3,1c0.1,0,0.1,0,0.2,0
			c0.1,0,0.1-0.1,0.1-0.1l3.8-8.7c0-0.1,0-0.1,0-0.2c0-0.1-0.1-0.1-0.1-0.1L51.9,134.5z"/>
		<path class="st0" d="M16.8,42.6c-0.1,0-0.1,0-0.2,0.1L15.5,44c-0.1,0.1-0.1,0.2,0,0.3c0.7,0.9,0.7,1.4,0.4,2
			c-0.2,0.4-0.5,0.7-0.8,0.8c-0.6,0.2-1.6,0-2.7-0.6c-0.9-0.5-1.6-0.9-1.9-1.5c-0.3-0.5-0.4-0.9-0.1-1.4c0.4-0.8,1.2-0.9,1.7-0.8
			c0.1,0,0.3-0.1,0.3-0.2l0.4-1.7c0-0.1-0.1-0.3-0.2-0.3c0,0,0,0,0,0c-1.8-0.4-3.1,0.3-4,2.1c-1.1,2.3-0.1,4.5,2.9,5.9
			c1.1,0.5,2.1,0.8,3,0.8c1.5,0,2.7-0.8,3.4-2.2c0.8-1.7,0.6-3.3-0.8-4.6C16.9,42.6,16.9,42.6,16.8,42.6z"/>
		<path class="st0" d="M23,29.8L23,29.8c-2.6-2-5-1.9-6.7,0.2c-1.6,2.1-1.1,4.5,1.5,6.5c1.2,1,2.4,1.4,3.6,1.4h0.1
			c1.2,0,2.2-0.6,3-1.7c0.8-1.1,1.1-2.2,0.8-3.4C25.1,31.8,24.3,30.7,23,29.8z M22.9,35c-0.3,0.4-0.7,0.6-1.1,0.7
			c-0.7,0.1-1.5-0.3-2.5-1.1c-1-0.8-1.6-1.5-1.7-2.2c-0.1-0.4,0.1-0.8,0.4-1.2c0.4-0.5,0.8-0.7,1.3-0.7c0.1,0,0.1,0,0.2,0
			c0.6,0.1,1.3,0.4,2.2,1.1c0.8,0.7,1.4,1.3,1.6,1.8C23.4,34,23.3,34.5,22.9,35L22.9,35z"/>
		<path class="st0" d="M13.8,93.7C13.8,93.7,13.8,93.7,13.8,93.7l-7.4,2.4l-0.7-2.1c0-0.1-0.2-0.2-0.3-0.2c0,0,0,0,0,0l-1.5,0.5
			c-0.1,0-0.2,0.2-0.2,0.3l2.1,6.5c0,0.1,0.2,0.2,0.3,0.2l1.5-0.5c0.1,0,0.2-0.2,0.2-0.3l-0.7-2.1l7.4-2.4c0.1,0,0.2-0.2,0.2-0.3
			l-0.6-1.7C14,93.7,13.9,93.6,13.8,93.7z"/>
		<path class="st0" d="M76.9,138.5l-0.2,0c-1.4,0-2.4,0.5-3.1,1.5c-0.7,0.9-1,2.2-1,3.8c0,1.6,0.4,2.9,1.2,3.8
			c0.7,0.9,1.8,1.3,3.1,1.3l0.2,0c1.4,0,2.4-0.5,3.1-1.5c0.7-0.9,1-2.2,1-3.8C81.1,140.4,79.5,138.5,76.9,138.5z M78.4,146
			c-0.3,0.5-0.8,0.8-1.4,0.8h0c-0.6,0-1.1-0.2-1.5-0.7c-0.3-0.5-0.5-1.3-0.6-2.4c0-1.1,0.1-1.9,0.4-2.4c0.3-0.5,0.8-0.8,1.4-0.8
			l0.1,0c0.5,0,0.9,0.1,1.2,0.4c0.5,0.5,0.7,1.4,0.8,2.6C78.8,144.7,78.7,145.5,78.4,146z"/>
		<path class="st0" d="M63.3,137.5c-2.7-0.5-4.5,1.1-5.1,4.3c-0.3,1.6-0.2,2.9,0.4,3.9c0.6,1,1.5,1.7,2.9,1.9
			c0.3,0.1,0.6,0.1,0.9,0.1c2.2,0,3.7-1.5,4.2-4.4C67.1,140.1,65.9,138,63.3,137.5z M64.2,142.9c-0.2,1.1-0.5,1.8-0.9,2.3
			c-0.4,0.4-0.9,0.6-1.5,0.5c-0.6-0.1-1.1-0.4-1.3-1c-0.2-0.6-0.2-1.4,0-2.4c0.2-1.1,0.5-1.8,0.9-2.3c0.3-0.3,0.7-0.5,1.1-0.5
			c0.1,0,0.3,0,0.4,0c0.5,0.1,0.9,0.3,1.1,0.7C64.4,140.7,64.5,141.6,64.2,142.9z"/>
		<path class="st0" d="M12,85.5l-0.2-1.8c0-0.1,0-0.1-0.1-0.2c-0.1,0-0.1-0.1-0.2-0.1l-3.8,0.4l-0.3-3.2l3.8-0.4
			c0.1,0,0.2-0.1,0.2-0.3c0,0,0,0,0,0l-0.2-1.8c0-0.1,0-0.1-0.1-0.2C11.1,78,11,78,10.9,78l-9.5,1c-0.1,0-0.2,0.1-0.2,0.3
			c0,0,0,0,0,0l0.2,1.8c0,0.1,0,0.1,0.1,0.2c0.1,0,0.1,0.1,0.2,0.1l3.5-0.4l0.3,3.2L2,84.4c-0.1,0-0.2,0.1-0.2,0.3L2,86.5
			c0,0.1,0,0.1,0.1,0.2c0,0,0.1,0.1,0.2,0.1h0l9.5-1C11.9,85.7,12,85.6,12,85.5z"/>
	</g>

<g class="logo-mark" fill="currentColor">
	<path class="st0" d="M61.1,109.7h51V35.2h-51h0L28.7,49.3v74.5L61.1,109.7L61.1,109.7z M61.1,50.1l7.6,4.4l1.3-2.2l-8.9-5.1v-9.5
		h9.2l5.2,9.1l2.2-1.3l-4.5-7.8h12v5.8h2.5v-5.8h12l-4.5,7.8l2.2,1.3l5.2-9.1h6.9v10.7l-6.6,3.8l1.3,2.2l5.4-3.1v7.8
		c-3.1-0.8-6.2-1.4-9.3-1.8c-2.1-5.6-7.5-9.5-13.8-9.5c-6.3,0-11.6,3.9-13.8,9.5c-5.7,0.8-9.8,1.8-11.6,2.4V50.1z M61.1,62.3
		c2.8-0.9,23.8-6.9,48.5-0.5v4.8c-4,3.8-7.8,2.7-15,0.4l-0.3-0.1c-8-2.5-12.9-0.1-17.4,8.4c-3.8,7.1-11.8,6.5-12.1,6.5l0,0
		c-1.4-0.9-2.6-1.9-3.7-3.1V62.3z M99.8,88.2c-0.4,0.3-0.7,0.7-1.1,1.1c-2.2,2.3-4.3,4.4-9.4,2.9c-7.3-2.2-10.8,0-14.4,4.5
		c-3,3.8-4.4,4.8-9.6,3c-1.7-0.6-3.1-0.8-4.3-0.7V82.2c1.9,1.6,4.7,3.5,8.5,4.3c1.2,0.3,2.5,0.4,3.7,0.4c6,0,11.3-3.3,15.9-6.5
		c4.4-3.1,7.3-1.4,10.4,0.4c2.8,1.6,6.9,1.6,10.1-0.6v5.6C105.8,84.8,102.5,85.6,99.8,88.2z M100.7,78.6c-3.1-1.8-7.3-4.2-13.1-0.2
		c-5.1,3.5-11,7.2-17.5,5.7c-0.3-0.1-0.5-0.1-0.8-0.2c3.2-0.7,7.2-2.6,9.8-7.4c4-7.5,7.6-9.3,14.4-7.2l0.3,0.1
		c6.6,2,11.2,3.5,15.8,0.4v7C107.1,79.7,103.2,80,100.7,78.6z M61.1,101.6c0.9-0.1,2.1,0,3.5,0.5c6.3,2.2,8.8,0.7,12.4-3.8
		c3.1-3.9,5.6-5.4,11.7-3.6c6.6,1.9,9.5-1.1,11.9-3.6c0.3-0.4,0.7-0.7,1-1c2.2-2.1,4.9-2.7,8-1.7v18.8h0H61.1V101.6z M38.1,87.4
		c-2.2,0-4-1.8-4-4s1.8-4,4-4c2.2,0,4,1.8,4,4S40.3,87.4,38.1,87.4z"/>
</g>
</svg>
