<svg
    height="100"
    width="104"
    viewBox="0 0 100 100"
    xmlns="http://www.w3.org/2000/svg"
    xmlns:xlink="http://www.w3.org/1999/xlink"
  >
    <defs>
      <path
        id="a"
        d="M0 99.71h103.342V0H0z"
      />
    </defs>
    <g
      fill="none"
      fill-rule="evenodd"
    >
      <path
        d="M65.292.002v6.94c14.941 0 26.274 10.953 25.746 30.245H65.292h34.355C101.094 17.232 88.591.21 65.292.002"
        fill="#FF398A"
      />
      <path
        d="M91.038 37.188c.528-19.293-10.805-30.246-25.746-30.246v30.245h25.746z"
        fill="#FFF"
      />
      <path
        d="M79.306 19.898a3.857 3.857 0 1 1-7.715 0 3.857 3.857 0 0 1 7.715 0"
        fill="#212F68"
      />
      <path
        d="M65.293 37.217v-.03l-.026.007a.413.413 0 0 0 .022.035l.004-.012zM65.25 37.199L0 54.693c5.174 10.305 17.554 16.32 31.144 15.294L65.25 37.199z"
        fill="#FF398A"
      />
      <path
        fill="#FF761A"
        d="M99.643 37.188h-8.604l4.3 10.856zM91.038 37.188h-8.605l4.302 10.856z"
      />
      <path
        fill="#FF761A"
        d="M82.433 37.188h-8.605l4.302 10.856zM100.953 68.657c1.516-3.966 2.333-8.327 2.386-12.939h-2.386v12.94zM95.34 48.046H70.17c.384 1.484.67 2.987.856 4.5h32.232a44.866 44.866 0 0 0-.517-4.5h-7.4zM64.13 89.95c2.811.194 5.507.15 8.072-.117L68.19 79.705 64.13 89.95zM82.35 87.397a34.097 34.097 0 0 0 5.1-2.519l-2.051-5.172-3.048 7.691zM72.808 89.763a39.07 39.07 0 0 0 7.344-1.584l-3.358-8.474-3.986 10.058zM52.492 87.886c3.88 1.084 7.599 1.742 11.136 2.023l-3.095-7.806a35.022 35.022 0 0 1-8.041 5.783M96.551 55.718v16.14h-1.344v-16.14H92.15v16.14h-1.345v-16.14h-3.057v16.14h-1.344v-16.14h-3.058v16.14h-1.345v-16.14h-3.056v16.14H77.6v-16.14h-3.057v16.14h-1.345v-16.14h-1.924a34.962 34.962 0 0 1-6.036 20.814h31.415a32.485 32.485 0 0 0 2.956-4.83V55.718h-3.058zM99.648 37.188h-.005l.192.485c-.063-.162-.122-.324-.187-.486M69.907 47.08l3.92-9.893h-8.523l-.01.03-.004.012a34.8 34.8 0 0 1 4.617 9.851"
      />
      <mask
        id="b"
        fill="#fff"
      >
        <use xlink:href="#a" />
      </mask>
      <path
        fill="#212F68"
        mask="url(#b)"
        d="M73.198 71.86h1.345V55.717h-1.345zM77.6 71.86h1.345V55.717H77.6zM82.001 71.86h1.345V55.717h-1.345zM90.805 71.86h1.345V55.717h-1.345zM95.207 71.86h1.344V55.717h-1.344zM99.609 55.718v15.984c.493-.987.945-2.001 1.345-3.045v-12.94h-1.345zM86.403 71.86h1.345V55.717h-1.345z"
      />
      <path
        d="M71.274 55.718h32.065a41.276 41.276 0 0 0-.081-3.172H71.026c.13 1.054.214 2.112.248 3.172M62.808 79.704H93.959a31.78 31.78 0 0 0 2.694-3.172H65.238a35.241 35.241 0 0 1-2.43 3.172"
        fill="#FFF"
        mask="url(#b)"
      />
      <path
        d="M52.492 87.886a35.022 35.022 0 0 0 8.041-5.783l3.094 7.806c.167.014.335.029.502.04l4.06-10.244 4.014 10.128c.203-.021.403-.047.605-.07l3.986-10.058 3.358 8.474c.748-.24 1.483-.5 2.198-.781l3.049-7.693 2.05 5.174a32.116 32.116 0 0 0 6.511-5.175H62.808a35.1 35.1 0 0 0 2.43-3.172 34.955 34.955 0 0 0 5.787-23.986 35.19 35.19 0 0 0-.855-4.5h32.571c-.561-3.387-1.522-6.86-2.906-10.372l-.192-.486-4.302 10.857-4.302-10.857-4.303 10.857-4.303-10.857-4.303 10.857-4.302-10.857-3.92 9.892a34.781 34.781 0 0 0-4.618-9.85c-.009-.011-.016-.024-.024-.035l-.004-.007-.011.01-34.108 32.789-15.65 15.044c10.827 7.998 25.262 8.99 36.999 2.855M71.082 99.71H68.41a3.122 3.122 0 0 0-3.118-3.119 3.122 3.122 0 0 0-3.119 3.119h-2.672a5.798 5.798 0 0 1 5.791-5.791 5.797 5.797 0 0 1 5.79 5.791M88.317 96.621h-2.672a3.122 3.122 0 0 0-3.12-3.119 3.122 3.122 0 0 0-3.117 3.12h-2.672a5.797 5.797 0 0 1 5.79-5.792 5.798 5.798 0 0 1 5.79 5.791"
        fill="#212F68"
        mask="url(#b)"
      />
      <path
        d="M65.292 22.066l-30.457-3.474C37.84 9.123 50.136-.134 65.292.002v22.064z"
        fill="#FF761A"
        mask="url(#b)"
      />
      <path
        d="M65.292 31.981c-14.158 4.103-21.898-3.47-21.898-3.47l21.898-6.446v9.916z"
        fill="#FF761A"
        mask="url(#b)"
      />
    </g>
  </svg>