<svg xmlns="http://www.w3.org/2000/svg" viewBox="0 0 1131.3 489.17" width="180" height="60"><path fill="#ffffff" d="M5.52 3.705h32.42v54.89h63V3.705h32.43v147.19h-32.43v-63.62h-63v63.62H5.52zm175.66 0h100v29.94h-67.57v27.44h63.82v29.93h-63.82v29.94h71.33v29.94H181.18zm146.35 0h57a100.13 100.13 0 0 1 21.26 2.19 50.5 50.5 0 0 1 17.67 7.27 36.3 36.3 0 0 1 12.06 13.73q4.47 8.64 4.47 21.52 0 15.59-8.11 26.5t-23.69 13.83l37.41 62.15h-38.87l-30.79-58.84h-16v58.84h-32.41zm32.41 60.91h19.12q4.37 0 9.25-.31a29.08 29.08 0 0 0 8.84-1.87 15.31 15.31 0 0 0 6.54-4.88c1.74-2.22 2.6-5.34 2.6-9.36q0-5.61-2.28-8.94a15.4 15.4 0 0 0-5.82-5.09 25.66 25.66 0 0 0-8.11-2.39 65.51 65.51 0 0 0-8.94-.63h-21.2zm118.51-60.91h32.43v147.19h-32.43zm107.05 28.69h-42V3.705h116.44v28.69h-42v118.5H585.5zm136.79-28.69h26.82l64.03 147.19h-36.59l-12.68-31.19H706.7l-12.27 31.19h-35.75zm12.47 42.83l-17.82 45.73h36zm243.02 93.96a117.14 117.14 0 0 1-29.94 10.81 151.76 151.76 0 0 1-31.8 3.33 90.74 90.74 0 0 1-31.81-5.41 72.56 72.56 0 0 1-25.15-15.49 70.18 70.18 0 0 1-16.53-24.42 83.11 83.11 0 0 1-5.92-32 83.13 83.13 0 0 1 5.92-32 70.32 70.32 0 0 1 16.53-24.42 72.69 72.69 0 0 1 25.15-15.48 90.74 90.74 0 0 1 31.81-5.41 118.17 118.17 0 0 1 32.53 4.26 63.77 63.77 0 0 1 26.09 14.63l-22.87 25a45.43 45.43 0 0 0-15-10.4q-8.28-3.6-20.75-3.6a48.33 48.33 0 0 0-18.82 3.53 42.29 42.29 0 0 0-14.45 9.88 43.41 43.41 0 0 0-9.25 15.07 54.18 54.18 0 0 0-3.22 18.91 53.94 53.94 0 0 0 3.22 19 43.5 43.5 0 0 0 9.25 15 42.29 42.29 0 0 0 14.45 9.88 48.15 48.15 0 0 0 18.82 3.53 61.8 61.8 0 0 0 18.29-2.39 69.06 69.06 0 0 0 12.27-4.88v-23.91h-26.41v-29.94h57.59zm46.36-136.79h100v29.94h-67.57v27.44h63.83v29.93h-63.83v29.94h71.31v29.94h-103.74z"/><path fill="#ffffff" d="M267.79 188.505h30.4l72.56 166.8h-41.47l-14.34-35.34h-64.82l-13.9 35.34H195.7zm14.15 48.53l-20.27 51.86h40.76zm209.91-5.14a36 36 0 0 0-13.31-10.13 44.26 44.26 0 0 0-18.26-3.54 45.74 45.74 0 0 0-34.52 15.2 52 52 0 0 0-10.13 17.08 65.15 65.15 0 0 0 0 43 53.3 53.3 0 0 0 10 17 45.3 45.3 0 0 0 15 11.19 43.23 43.23 0 0 0 18.49 4 41.5 41.5 0 0 0 20-4.71 39.82 39.82 0 0 0 14.37-13.2l30.63 22.85a63.83 63.83 0 0 1-26.86 21.92 83.18 83.18 0 0 1-33.46 7.06 102.78 102.78 0 0 1-36-6.12 82.38 82.38 0 0 1-28.54-17.6 79.52 79.52 0 0 1-18.73-27.69 94.473 94.473 0 0 1-6.72-36.31q0-20 6.72-36.28a79.61 79.61 0 0 1 18.73-27.72 82.68 82.68 0 0 1 28.51-17.55 102.78 102.78 0 0 1 36-6.12 88.78 88.78 0 0 1 14.73 1.29 79.81 79.81 0 0 1 15.08 4.13 67.32 67.32 0 0 1 14.25 7.54 56.81 56.81 0 0 1 12.25 11.54zm94-10.88h-47.59v-32.51H670.2v32.51h-47.59v134.29h-36.76zm107.2-32.51h36.75v166.8h-36.75zm65.96 83.39q0-20 6.72-36.28a79.61 79.61 0 0 1 18.73-27.72 82.68 82.68 0 0 1 28.48-17.51 109.21 109.21 0 0 1 72.09 0 82.77 82.77 0 0 1 28.54 17.51 79.75 79.75 0 0 1 18.73 27.69 94.598 94.598 0 0 1 6.71 36.31q0 20-6.71 36.28a79.66 79.66 0 0 1-18.73 27.72 82.47 82.47 0 0 1-28.51 17.55 109.21 109.21 0 0 1-72.09 0 82.38 82.38 0 0 1-28.51-17.55 79.52 79.52 0 0 1-18.73-27.69 94.474 94.474 0 0 1-6.72-36.31zm38.17 0a61.28 61.28 0 0 0 3.65 21.56 49.36 49.36 0 0 0 10.49 17 47.8 47.8 0 0 0 16.37 11.19 58.68 58.68 0 0 0 42.64 0 47.94 47.94 0 0 0 16.38-11.19 49.34 49.34 0 0 0 10.48-17 65.15 65.15 0 0 0 0-43 49.11 49.11 0 0 0-10.48-17.08 47.94 47.94 0 0 0-16.38-11.19 58.68 58.68 0 0 0-42.64 0 47.8 47.8 0 0 0-16.37 11.19 49.14 49.14 0 0 0-10.49 17.08 61.6 61.6 0 0 0-3.65 21.44zm171.51-83.39h50l70.92 115.91h.47v-115.91h36.75v166.8h-48.06l-72.83-118.74h-.47v118.74h-36.78z"/><path fill="#ffffff" d="M.13 401.115h55.42v13.78H15.41v22.6h37.84v13.82H15.41v35.65H.13zm95.32 43.29a49.82 49.82 0 0 1 3.39-18.74 42 42 0 0 1 9.4-14.37 41.13 41.13 0 0 1 14.31-9.15 50.23 50.23 0 0 1 18.25-3.25 51.05 51.05 0 0 1 18.43 3 40.4 40.4 0 0 1 14.43 9 41.68 41.68 0 0 1 9.46 14.31 49.31 49.31 0 0 1 3.4 18.67 47.7 47.7 0 0 1-3.4 18.31 42 42 0 0 1-9.46 14.19 43.14 43.14 0 0 1-14.43 9.28 51.09 51.09 0 0 1-18.43 3.45 50.23 50.23 0 0 1-18.25-3.21 40.89 40.89 0 0 1-23.71-23.22 47.73 47.73 0 0 1-3.39-18.27zm16-1a36.77 36.77 0 0 0 2.13 12.73 29.67 29.67 0 0 0 6 10.06 27.67 27.67 0 0 0 9.27 6.67 29.08 29.08 0 0 0 12.09 2.46 29.5 29.5 0 0 0 12.11-2.43 27.51 27.51 0 0 0 9.33-6.67 29.85 29.85 0 0 0 6-10.06 37 37 0 0 0 2.12-12.73 33.59 33.59 0 0 0-2.12-12 29.79 29.79 0 0 0-6-9.76 27.48 27.48 0 0 0-9.33-6.55 30.31 30.31 0 0 0-12.11-2.37 29.88 29.88 0 0 0-12.07 2.36 27.63 27.63 0 0 0-9.27 6.55 29.6 29.6 0 0 0-6 9.76 33.38 33.38 0 0 0-2.15 12.01zm119.93-42.29h29.83a60.63 60.63 0 0 1 12 1.15 30.7 30.7 0 0 1 10.25 3.94 20.58 20.58 0 0 1 7.15 7.52q2.67 4.73 2.67 12 0 9.35-5.16 15.65t-14.73 7.64l22.8 37.95h-18.48l-19.89-36.38h-11.16v36.38h-15.28zm27.17 36.38q3.27 0 6.54-.31a20 20 0 0 0 6-1.45 10.21 10.21 0 0 0 4.42-3.52 11.2 11.2 0 0 0 1.7-6.61 10.54 10.54 0 0 0-1.58-6.06 9.76 9.76 0 0 0-4.12-3.46 18.88 18.88 0 0 0-5.64-1.51 49.782 49.782 0 0 0-6-.37h-13.21v23.29zm173.52-36.38h13.22l37 85.85h-17.47l-8-19.64h-37.24l-7.76 19.64h-17.1zm19.41 53.11l-13.22-34.92-13.46 34.92zm71.05-53.11h23.29l22.92 60.14 23.2-60.14h23v85.85h-14.55v-71.3h-.25l-26.07 71.3H563.4l-26.07-71.3h-.24v71.3h-14.56zm142.25 0h56.87v13.78h-41.59v21.1h39.41v13.9h-39.41v23.29h43.77v13.82h-59zm104.41 0h29.83a60.6 60.6 0 0 1 11.92 1.15 30.62 30.62 0 0 1 10.25 3.94 20.58 20.58 0 0 1 7.15 7.52q2.67 4.73 2.67 12 0 9.35-5.15 15.65t-14.74 7.64l22.82 37.95h-18.43l-19.89-36.38h-11.15v36.38h-15.28zm27.16 36.38q3.27 0 6.55-.31a20 20 0 0 0 6-1.45 10.29 10.29 0 0 0 4.43-3.52 11.2 11.2 0 0 0 1.69-6.61 10.54 10.54 0 0 0-1.57-6.06 9.79 9.79 0 0 0-4.13-3.46 18.73 18.73 0 0 0-5.63-1.51 50.06 50.06 0 0 0-6-.37h-13.22v23.29zm79.18-36.38h15.28v85.85h-15.28zm123.33 20.13q-4.73-5.1-9.16-6.8a24.73 24.73 0 0 0-8.91-1.69 29.8 29.8 0 0 0-12.06 2.36 27.57 27.57 0 0 0-9.28 6.55 29.6 29.6 0 0 0-6 9.76 33.38 33.38 0 0 0-2.13 12 36.77 36.77 0 0 0 2.13 12.73 29.67 29.67 0 0 0 6 10.06 27.61 27.61 0 0 0 9.28 6.67 29 29 0 0 0 12.06 2.43 22.16 22.16 0 0 0 10.13-2.49 27.55 27.55 0 0 0 9.15-7.94l12.61 9a34.41 34.41 0 0 1-14.18 11.65 44.31 44.31 0 0 1-17.83 3.63 50.23 50.23 0 0 1-18.25-3.27 40.89 40.89 0 0 1-23.71-23.22 47.73 47.73 0 0 1-3.39-18.31 49.82 49.82 0 0 1 3.39-18.74 42.14 42.14 0 0 1 9.4-14.37 41.13 41.13 0 0 1 14.31-9.15 50.23 50.23 0 0 1 18.25-3.21 41.88 41.88 0 0 1 16.19 3.09 37.81 37.81 0 0 1 13.88 10.49zm82.22-20.13h13.22l37 85.85h-17.46l-8-19.64h-37.23l-7.76 19.64h-17.1zm19.4 53.11l-13.22-34.92-13.46 34.92z"/><path fill="#ffffff" d="M32.43 230.105c11.13-15.37 30.26-24.92 49.92-24.92s38.79 9.55 49.92 24.92c6.71 9.26 9.73 19.65 11.61 29.75h15.31v-66.24a10.26 10.26 0 0 0-10.25-10.26H15.78a10.26 10.26 0 0 0-10.27 10.25v66.29h15.31c1.86-10.14 4.9-20.53 11.61-29.79z"/><path fill="#ffffff" d="M141.94 308.645c-2-7.15-2.92-14.83-4.5-23.88-1.45-8.27-2.23-16.87-3.91-25.13a66 66 0 0 0-6.08-18 44.08 44.08 0 0 0-3.51-5.74 49.67 49.67 0 0 0-18.35-15.2 51.89 51.89 0 0 0-46.42 0 49.55 49.55 0 0 0-18.39 15.2 44.36 44.36 0 0 0-3.54 5.76 65.37 65.37 0 0 0-6.08 18c-1.69 8.26-2.46 16.86-3.91 25.13-1.59 9.05-2.52 16.73-4.51 23.88-3.72 13.36-12.8 22.11-22.74 31.13v14.8h164.7v-14.8c-10.27-9.1-18.96-17.52-22.76-31.15z"/></svg>