<svg width="180" height="34" fill="none" xmlns="http://www.w3.org/2000/svg" viewBox="0 0 180 34" aria-hidden="true"><path d="M73.78 31.369v-6.017h-2.178V33.4h22.806v-2.031H73.78ZM11.009 14.827H4.568v-6.65H.5V25.35h4.068v-6.744h6.441v6.744h4.07V8.178h-4.07v6.649ZM25.685 8.178h-4.068v17.17h4.068V8.178ZM46.63 13.955v-.047c0-1.622-.516-2.994-1.495-3.97-1.15-1.153-2.887-1.76-5.038-1.76h-7.87v17.17h4.067v-5.374h2.62l3.598 5.375h4.773l-4.156-6.099c2.26-.922 3.501-2.776 3.501-5.295Zm-4.118.145v.047c0 1.35-1.014 2.204-2.645 2.204H36.31v-4.465h3.485c1.754 0 2.717.788 2.717 2.214ZM56.038 21.69v-3.158h7.918v-3.658h-7.918V11.84h8.998V8.178H51.992v17.17h13.163V21.69h-9.117Z" fill="#000"></path><path d="M90.66 19.25c2.258-.922 3.498-2.795 3.498-5.295v-.047c0-1.622-.516-2.994-1.492-3.97-1.153-1.153-2.89-1.76-5.037-1.76h-7.871v17.17h4.083v-5.374h2.616l3.602 5.375h4.77L90.66 19.25Zm-.63-5.103c0 1.35-1.013 2.204-2.644 2.204h-3.545v-4.465h3.485c1.754 0 2.717.788 2.717 2.204l-.012.057ZM103.763 8.178h-4.068v17.17h4.068V8.178ZM117.953 18.87h3.722v2.116a5.789 5.789 0 0 1-3.293.919c-2.834 0-4.902-2.163-4.902-5.141v-.047c0-2.783 2.078-5.038 4.637-5.038 1.905 0 3.01.611 4.272 1.663l.142.12 2.566-3.095-.142-.117c-1.964-1.669-3.91-2.349-6.718-2.349-5.037 0-8.995 3.898-8.995 8.872v.047c0 5.116 3.794 8.816 9.017 8.816a11.035 11.035 0 0 0 7.294-2.705l.067-.056v-7.556h-7.667v3.551ZM141.72 14.827h-6.441v-6.65h-4.068V25.35h4.068v-6.744h6.441v6.744h4.067V8.178h-4.067v6.649ZM149.445 8.178v3.78h5.113v13.39h4.068v-13.39h5.113v-3.78h-14.294Z" fill="#EA1010"></path><path d="M170.053 2.197v6.016h2.178V.166h-22.809v2.03h20.631ZM175.383 2.458a2.28 2.28 0 0 1 3.891-1.612 2.282 2.282 0 0 1-3.224 3.224 2.28 2.28 0 0 1-.667-1.612Zm4.294 0a2.014 2.014 0 1 0-4.03 0 2.018 2.018 0 0 0 2.015 2.015 2.015 2.015 0 0 0 2.015-2.015Zm-2.953-1.278h1.077a1.023 1.023 0 0 1 .749.264.732.732 0 0 1 .214.517.75.75 0 0 1-.523.749l.592.869h-.629l-.523-.768h-.422v.78h-.535V1.18Zm1.07 1.184c.271 0 .416-.145.416-.347v-.025c0-.233-.164-.352-.428-.352h-.523v.711l.535.013Z" fill="#000"></path></svg>