<svg viewBox="0 0 104 18.59" xmlns="http://www.w3.org/2000/svg"><g fill="#323232"><path d="m40.87 2.73v14.53l-9.76-9.28v8.56h-2.7v-14.49l9.76 9.28v-8.6z"/><path d="m46.07 14.39c.27.34.71.51 1.15.48.34 0 .64-.07.95-.24.27-.14.47-.38.64-.65.17-.31.24-.65.24-.99v-5.52h2.53v9.07h-2.53v-1.36c-.51 1.02-1.59 1.64-2.7 1.57-1.08 0-1.86-.31-2.4-.92-.57-.72-.84-1.64-.78-2.56v-5.8h2.63v5.49c-.1.55 0 1.02.27 1.43z"/><path d="m59.58 7.43c-.3-.1-.61-.17-.94-.17-.51 0-.98.2-1.35.51-.3.24-.54.51-.78.82v-1.09h-2.47v9.07h2.47v-5.15c.03-.27.07-.55.17-.78.1-.27.27-.55.51-.72s.51-.27.81-.27c.24 0 .44.03.64.14.17.1.34.2.51.34l1.15-2.18c-.2-.2-.44-.41-.71-.51z"/><path d="m63 14.29c.3.2.61.38.94.48.27.1.54.14.85.17.27.03.54-.07.78-.24.17-.14.27-.38.27-.61s-.07-.44-.24-.61c-.2-.2-.41-.34-.64-.44-.34-.17-.71-.31-1.08-.41-.4-.17-.81-.34-1.22-.58-.37-.2-.71-.51-.98-.89-.27-.41-.4-.89-.4-1.4 0-.48.13-.95.44-1.36.3-.38.71-.68 1.15-.85.51-.2 1.08-.31 1.62-.27.47 0 .98.07 1.42.2.44.14.84.31 1.22.51.37.2.71.48 1.01.75l-1.11 1.57c-.34-.38-.74-.65-1.18-.89-.4-.2-.84-.34-1.32-.34-.24 0-.47.03-.68.17-.17.1-.27.31-.24.51 0 .2.1.41.24.51.2.17.44.31.71.41.3.1.64.27 1.05.44.47.17.91.38 1.35.61.4.2.74.51.98.85.27.41.4.85.37 1.33.03.82-.27 1.6-.88 2.11-.67.55-1.55.82-2.43.75-.61 0-1.18-.07-1.76-.27-.51-.17-.98-.38-1.42-.68-.4-.27-.78-.58-1.15-.92l1.22-1.6c.37.44.74.72 1.12.99z"/><path d="m78.46 9.41c-.37-.68-.91-1.23-1.59-1.57-1.62-.75-3.51-.72-5.1.03-.71.38-1.28.92-1.69 1.64-.78 1.57-.78 3.44 0 5.01.4.72.98 1.26 1.69 1.64.78.41 1.69.61 2.57.58.98.03 1.93-.2 2.8-.65.78-.44 1.45-1.13 1.86-1.94l-2.2-.68c-.24.41-.57.75-.98.99-.44.24-.95.34-1.45.34-.44 0-.88-.1-1.28-.34-.37-.24-.64-.58-.81-.95-.1-.31-.17-.61-.24-.92h6.92c0-.07.03-.17.03-.31v-.38c.03-.85-.17-1.71-.54-2.49zm-5.4 0c.37-.24.81-.34 1.25-.34.37 0 .74.1 1.05.27.3.17.54.44.71.75.13.27.2.61.24.92h-4.19c.03-.2.1-.44.17-.65.14-.38.41-.72.78-.95z"/></g><path d="m19.89.51v17.36c0 .41-.3.72-.71.72h-7.36c-2.09 0-4.02-1.16-5.03-3 1.42-1.53 2.4-4.26 3.17-6.27s1.76-4.74 3.18-6.27c1.62-1.82 3.88-2.91 6.28-3.02.24-.03.47.17.47.48t0 0z" fill="#038d80"/><path d="m13.11 3.04c-1.42 1.53-2.4 4.23-3.17 6.27-.78 2.05-1.76 4.74-3.18 6.27-1.62 1.81-3.88 2.86-6.28 3-.27 0-.47-.2-.47-.44v-17.42c0-.41.34-.72.71-.72h7.33c2.13 0 4.05 1.16 5.07 3.04z" fill="#2ebbad"/><path d="m80.39 15.38c.17-.17.41-.27.64-.27s.47.1.61.27c.17.17.27.38.24.61 0 .24-.1.44-.24.61-.17.17-.37.27-.61.27-.47 0-.88-.38-.88-.89-.03-.2.07-.44.24-.61z" fill="#323232"/><path d="m84.31 14.73c.3.55.91.89 1.52.89.27 0 .54-.03.78-.14.24-.07.44-.2.64-.34.17-.14.3-.31.4-.48v1.5c-.24.2-.51.38-.81.48-.37.14-.74.17-1.12.17-.54 0-1.08-.14-1.55-.38s-.84-.61-1.11-1.06c-.54-.95-.54-2.15 0-3.1.27-.44.64-.82 1.11-1.06.47-.27 1.01-.41 1.59-.38.37 0 .74.07 1.11.17.3.1.58.24.81.44v1.5c-.1-.2-.24-.38-.44-.51-.2-.14-.44-.27-.68-.34s-.51-.14-.78-.14c-.64 0-1.22.34-1.52.89-.27.55-.27 1.26.03 1.88z" fill="#323232"/><path d="m89.04 12.21c.27-.44.64-.82 1.11-1.06.98-.51 2.16-.51 3.14 0 .44.24.85.61 1.08 1.06.54.95.54 2.15 0 3.1-.27.44-.64.82-1.08 1.06-.98.51-2.16.51-3.14 0-.47-.24-.84-.61-1.11-1.06-.54-.95-.54-2.15 0-3.1zm1.22 2.49c.44.82 1.49 1.13 2.3.65.27-.17.51-.38.64-.65.17-.31.24-.61.24-.95s-.07-.65-.24-.95c-.13-.27-.34-.48-.61-.65-.54-.31-1.18-.31-1.72 0-.27.14-.47.38-.61.65-.17.31-.24.61-.24.95s.07.68.24.95z" fill="#323232"/><path d="m104 16.64h-1.35v-3.51c.03-.34-.07-.68-.24-.95-.17-.24-.44-.34-.71-.31-.2 0-.4.03-.61.14-.17.1-.3.24-.4.44s-.13.48-.13.72v3.51h-1.35v-3.55c.03-.34-.07-.68-.24-.95-.17-.24-.44-.34-.71-.31-.2 0-.4.03-.57.14-.17.1-.3.24-.4.44s-.13.48-.13.72v3.51h-1.32v-5.8h1.32v.85c.13-.31.37-.55.64-.72.3-.17.61-.24.95-.24.37 0 .71.07 1.05.27.27.17.47.44.61.75.17-.31.44-.58.78-.78.3-.17.68-.27 1.01-.27.37 0 .71.07 1.01.27.27.17.47.44.61.75.14.38.2.78.2 1.19v3.68z" fill="#323232"/></svg>