<?xml version="1.0" encoding="utf-8"?>
<!-- Generator: Adobe Illustrator 16.0.4, SVG Export Plug-In . SVG Version: 6.00 Build 0)  -->
<!DOCTYPE svg PUBLIC "-//W3C//DTD SVG 1.1//EN" "http://www.w3.org/Graphics/SVG/1.1/DTD/svg11.dtd">
<svg version="1.1" id="Layer_1" xmlns="http://www.w3.org/2000/svg" xmlns:xlink="http://www.w3.org/1999/xlink" x="0px" y="0px"
	 width="360px" height="110px" viewBox="0 0 360 110" enable-background="new 0 0 360 110" xml:space="preserve">
<g>
	<defs>
		<rect id="SVGID_1_" x="0.856" y="0.705" width="358.287" height="108.59"/>
	</defs>
	<clipPath id="SVGID_2_">
		<use xlink:href="#SVGID_1_"  overflow="visible"/>
	</clipPath>
	<path clip-path="url(#SVGID_2_)" d="M149.531,25.464c6.592,0,11.865,5.306,11.865,11.898c0,6.592-5.273,11.833-11.865,11.833
		s-11.832-5.241-11.832-11.833C137.699,30.77,142.939,25.464,149.531,25.464 M149.531,44.91c4.153,0,7.581-3.396,7.581-7.548
		s-3.428-7.613-7.581-7.613s-7.548,3.461-7.548,7.613S145.378,44.91,149.531,44.91"/>
	<path clip-path="url(#SVGID_2_)" d="M168.844,26.42c0-0.329,0.263-0.626,0.626-0.626h7.746c4.053,0,7.382,3.296,7.382,7.283
		c0,4.087-3.329,7.416-7.351,7.416h-4.119v7.746c0,0.329-0.297,0.626-0.627,0.626h-3.032c-0.363,0-0.626-0.297-0.626-0.626V26.42z
		 M176.952,36.473c1.846,0,3.394-1.483,3.394-3.428c0-1.812-1.547-3.197-3.394-3.197h-3.823v6.625H176.952z"/>
	<path clip-path="url(#SVGID_2_)" d="M191.156,26.42c0-0.329,0.264-0.626,0.626-0.626h13.415c0.362,0,0.626,0.297,0.626,0.626v2.703
		c0,0.329-0.264,0.626-0.626,0.626h-9.756v5.404h8.141c0.329,0,0.626,0.298,0.626,0.626v2.736c0,0.363-0.297,0.627-0.626,0.627
		h-8.141v5.768h9.756c0.362,0,0.626,0.297,0.626,0.626v2.702c0,0.329-0.264,0.627-0.626,0.627h-13.415
		c-0.362,0-0.626-0.298-0.626-0.627V26.42z"/>
	<path clip-path="url(#SVGID_2_)" d="M213.699,26.058c0-0.33,0.297-0.593,0.626-0.593h0.824l13.711,14.567h0.033V26.42
		c0-0.329,0.264-0.626,0.626-0.626h3.032c0.33,0,0.628,0.297,0.628,0.626v22.182c0,0.33-0.298,0.593-0.628,0.593h-0.79
		l-13.777-15.128h-0.033v14.173c0,0.329-0.264,0.626-0.626,0.626h-3c-0.329,0-0.626-0.297-0.626-0.626V26.058z"/>
	<path clip-path="url(#SVGID_2_)" d="M251.667,45.635l1.188-2.044c0.264-0.461,0.823-0.461,1.12-0.229
		c0.165,0.099,2.835,2.043,4.977,2.043c1.714,0,2.999-1.12,2.999-2.538c0-1.681-1.417-2.834-4.186-3.955
		c-3.098-1.252-6.196-3.23-6.196-7.119c0-2.933,2.176-6.328,7.416-6.328c3.362,0,5.933,1.714,6.592,2.209
		c0.329,0.197,0.429,0.757,0.198,1.087l-1.253,1.878c-0.264,0.396-0.758,0.66-1.153,0.396c-0.263-0.165-2.769-1.813-4.582-1.813
		c-1.878,0-2.9,1.253-2.9,2.309c0,1.549,1.22,2.604,3.89,3.69c3.197,1.286,6.889,3.197,6.889,7.449c0,3.395-2.934,6.526-7.581,6.526
		c-4.152,0-6.592-1.945-7.251-2.571C251.536,46.327,251.371,46.162,251.667,45.635"/>
	<path clip-path="url(#SVGID_2_)" d="M274.046,26.42c0-0.329,0.264-0.626,0.627-0.626h7.745c4.054,0,7.383,3.296,7.383,7.283
		c0,4.087-3.329,7.416-7.351,7.416h-4.119v7.746c0,0.329-0.297,0.626-0.627,0.626h-3.031c-0.363,0-0.627-0.297-0.627-0.626V26.42z
		 M282.154,36.473c1.846,0,3.396-1.483,3.396-3.428c0-1.812-1.55-3.197-3.396-3.197h-3.823v6.625H282.154z"/>
	<path clip-path="url(#SVGID_2_)" d="M291.975,48.008l10.25-22.181c0.099-0.198,0.264-0.363,0.561-0.363h0.329
		c0.33,0,0.462,0.165,0.561,0.363l10.151,22.181c0.198,0.429-0.065,0.857-0.56,0.857h-2.869c-0.493,0-0.724-0.198-0.955-0.659
		l-1.614-3.56h-9.854l-1.615,3.56c-0.132,0.329-0.429,0.659-0.956,0.659h-2.867C292.04,48.865,291.776,48.437,291.975,48.008
		 M306.213,40.988l-3.296-7.251h-0.099l-3.23,7.251H306.213z"/>
	<path clip-path="url(#SVGID_2_)" d="M329.284,25.464c3.328,0,5.734,1.056,7.976,3.065c0.296,0.264,0.296,0.659,0.033,0.923
		l-2.011,2.076c-0.23,0.264-0.562,0.264-0.824,0c-1.384-1.219-3.229-1.944-5.075-1.944c-4.219,0-7.35,3.526-7.35,7.679
		c0,4.12,3.164,7.614,7.383,7.614c1.978,0,3.658-0.758,5.042-1.879c0.263-0.23,0.627-0.198,0.824,0l2.044,2.11
		c0.264,0.229,0.197,0.659-0.033,0.89c-2.241,2.174-5.075,3.196-8.009,3.196c-6.592,0-11.898-5.24-11.898-11.832
		S322.692,25.464,329.284,25.464"/>
	<path clip-path="url(#SVGID_2_)" d="M344.477,26.42c0-0.329,0.264-0.626,0.626-0.626h13.415c0.362,0,0.626,0.297,0.626,0.626v2.703
		c0,0.329-0.264,0.626-0.626,0.626h-9.756v5.404h8.141c0.329,0,0.626,0.298,0.626,0.626v2.736c0,0.363-0.297,0.627-0.626,0.627
		h-8.141v5.768h9.756c0.362,0,0.626,0.297,0.626,0.626v2.702c0,0.329-0.264,0.627-0.626,0.627h-13.415
		c-0.362,0-0.626-0.298-0.626-0.627V26.42z"/>
	<path clip-path="url(#SVGID_2_)" d="M141.169,60.525c0-0.232,0.209-0.441,0.441-0.441h2.159c0.231,0,0.44,0.209,0.44,0.441v15.363
		c0,0.232-0.209,0.441-0.44,0.441h-2.159c-0.232,0-0.441-0.209-0.441-0.441V60.525z"/>
	<path clip-path="url(#SVGID_2_)" d="M153.658,60.27c0-0.23,0.209-0.418,0.441-0.418h0.58l9.655,10.26h0.023v-9.586
		c0-0.232,0.186-0.441,0.441-0.441h2.135c0.233,0,0.441,0.209,0.441,0.441v15.619c0,0.232-0.208,0.418-0.441,0.418h-0.557
		l-9.701-10.652h-0.023v9.979c0,0.234-0.185,0.443-0.441,0.443h-2.112c-0.232,0-0.441-0.209-0.441-0.443V60.27z"/>
	<path clip-path="url(#SVGID_2_)" d="M175.99,74.057l0.835-1.439c0.186-0.324,0.58-0.324,0.789-0.162
		c0.116,0.068,1.996,1.439,3.505,1.439c1.207,0,2.111-0.789,2.111-1.787c0-1.184-0.998-1.996-2.947-2.785
		c-2.182-0.883-4.363-2.275-4.363-5.014c0-2.066,1.532-4.457,5.222-4.457c2.368,0,4.178,1.207,4.643,1.557
		c0.231,0.139,0.302,0.533,0.139,0.766l-0.882,1.322c-0.186,0.279-0.533,0.465-0.812,0.279c-0.186-0.117-1.949-1.277-3.226-1.277
		c-1.323,0-2.042,0.883-2.042,1.625c0,1.09,0.858,1.834,2.738,2.6c2.251,0.904,4.851,2.25,4.851,5.244
		c0,2.391-2.066,4.596-5.338,4.596c-2.925,0-4.642-1.369-5.106-1.811C175.897,74.543,175.781,74.428,175.99,74.057"/>
	<path clip-path="url(#SVGID_2_)" d="M197.206,62.869h-3.551c-0.256,0-0.441-0.209-0.441-0.441v-1.902
		c0-0.232,0.186-0.441,0.441-0.441h10.142c0.255,0,0.441,0.209,0.441,0.441v1.902c0,0.232-0.187,0.441-0.441,0.441h-3.551v13.021
		c0,0.23-0.209,0.439-0.441,0.439h-2.158c-0.231,0-0.44-0.209-0.44-0.439V62.869z"/>
	<path clip-path="url(#SVGID_2_)" d="M211.831,60.525c0-0.232,0.209-0.441,0.44-0.441h2.158c0.232,0,0.441,0.209,0.441,0.441v15.363
		c0,0.232-0.209,0.441-0.441,0.441h-2.158c-0.231,0-0.44-0.209-0.44-0.441V60.525z"/>
	<path clip-path="url(#SVGID_2_)" d="M226.432,62.869h-3.552c-0.255,0-0.44-0.209-0.44-0.441v-1.902c0-0.232,0.186-0.441,0.44-0.441
		h10.143c0.256,0,0.441,0.209,0.441,0.441v1.902c0,0.232-0.186,0.441-0.441,0.441h-3.551v13.021c0,0.23-0.209,0.439-0.441,0.439
		h-2.158c-0.231,0-0.44-0.209-0.44-0.439V62.869z"/>
	<path clip-path="url(#SVGID_2_)" d="M240.917,60.525c0-0.232,0.209-0.441,0.441-0.441h2.205c0.255,0,0.44,0.209,0.44,0.441v9.492
		c0,1.973,1.346,3.529,3.365,3.529c2.019,0,3.389-1.557,3.389-3.506v-9.516c0-0.232,0.186-0.441,0.44-0.441h2.205
		c0.232,0,0.44,0.209,0.44,0.441v9.654c0,3.527-2.808,6.383-6.475,6.383c-3.644,0-6.452-2.855-6.452-6.383V60.525z"/>
	<path clip-path="url(#SVGID_2_)" d="M265.291,62.869h-3.552c-0.255,0-0.44-0.209-0.44-0.441v-1.902c0-0.232,0.186-0.441,0.44-0.441
		h10.143c0.256,0,0.441,0.209,0.441,0.441v1.902c0,0.232-0.186,0.441-0.441,0.441h-3.551v13.021c0,0.23-0.209,0.439-0.441,0.439
		h-2.158c-0.231,0-0.44-0.209-0.44-0.439V62.869z"/>
	<path clip-path="url(#SVGID_2_)" d="M279.916,60.525c0-0.232,0.185-0.441,0.44-0.441h9.446c0.255,0,0.44,0.209,0.44,0.441v1.902
		c0,0.232-0.186,0.441-0.44,0.441h-6.87v3.807h5.732c0.232,0,0.441,0.209,0.441,0.441v1.926c0,0.256-0.209,0.441-0.441,0.441h-5.732
		v4.062h6.87c0.255,0,0.44,0.209,0.44,0.439v1.902c0,0.232-0.186,0.441-0.44,0.441h-9.446c-0.256,0-0.44-0.209-0.44-0.441V60.525z"
		/>
	<path clip-path="url(#SVGID_2_)" fill="#BBD976" d="M90.384,75.354l11.774,6.797c4.419-7.65,7.035-16.475,7.245-25.899H95.811
		C95.596,63.195,93.652,69.697,90.384,75.354"/>
	<path clip-path="url(#SVGID_2_)" fill="#14B1E7" d="M55.132,14.28V0.704c-9.897,0-19.167,2.648-27.153,7.268l6.798,11.763
		C40.768,16.272,47.716,14.28,55.132,14.28"/>
	<path clip-path="url(#SVGID_2_)" fill="#6DCFF6" d="M34.777,19.737L27.979,7.972C19.736,12.74,12.868,19.608,8.106,27.847
		l11.762,6.791C23.448,28.459,28.597,23.314,34.777,19.737"/>
	<path clip-path="url(#SVGID_2_)" fill="#ABE1FA" d="M19.87,34.638L8.106,27.846c-4.429,7.646-7.038,16.474-7.25,25.895h13.58
		C14.649,46.796,16.599,40.294,19.87,34.638"/>
	<path clip-path="url(#SVGID_2_)" fill="#034EA2" d="M95.811,53.74h13.592c-0.213-9.421-2.825-18.251-7.252-25.895l-11.768,6.792
		C93.649,40.294,95.598,46.796,95.811,53.74"/>
	<path clip-path="url(#SVGID_2_)" fill="#0097D6" d="M55.136,14.28c7.416,0,14.357,1.992,20.348,5.454l6.794-11.763
		C74.296,3.353,65.02,0.704,55.133,0.704V14.28H55.136z"/>
	<path clip-path="url(#SVGID_2_)" fill="#0074BC" d="M90.384,34.638l11.767-6.792C97.384,19.606,90.52,12.74,82.278,7.973
		l-6.794,11.765C81.663,23.314,86.812,28.464,90.384,34.638"/>
	<path clip-path="url(#SVGID_2_)" fill="#3A9948" d="M34.773,90.256l-6.794,11.768c7.987,4.621,17.26,7.271,27.153,7.271V95.723
		C47.712,95.715,40.768,93.727,34.773,90.256"/>
	<path clip-path="url(#SVGID_2_)" fill="#8BC751" d="M75.487,90.256l6.793,11.768c8.242-4.768,15.105-11.641,19.878-19.873
		l-11.775-6.797C86.812,81.533,81.664,86.682,75.487,90.256"/>
	<path clip-path="url(#SVGID_2_)" fill="#006543" d="M14.439,56.252H0.858C1.067,65.676,3.675,74.5,8.105,82.15l11.766-6.793
		C16.599,69.705,14.648,63.195,14.439,56.252"/>
	<path clip-path="url(#SVGID_2_)" fill="#227D46" d="M19.87,75.357L8.106,82.15c4.763,8.232,11.63,15.107,19.875,19.873
		l6.796-11.768C28.599,86.682,23.448,81.533,19.87,75.357"/>
	<path clip-path="url(#SVGID_2_)" fill="#50B848" d="M55.136,95.723h-0.003v13.568c9.887,0,19.163-2.646,27.145-7.268l-6.79-11.768
		C69.496,93.723,62.552,95.723,55.136,95.723"/>
</g>
</svg>
