<svg aria-hidden="true" width="207" height="40" viewBox="0 0 207 40" fill="none" xmlns="http://www.w3.org/2000/svg">
  <g clip-path="url(#clip0_1243_2374)">
    <path d="M58.1759 12.5636L46.8041 35.215C44.6652 39.4945 39.4617 41.2219 35.1804 39.0795C30.924 36.9478 29.1912 31.7815 31.2875 27.5162C31.2982 27.4949 31.3088 27.4736 31.3195 27.4523L31.3337 27.4293L42.6895 4.80268C44.8302 0.524946 50.0372 -1.20424 54.3132 0.938177C58.5909 3.08059 60.3201 8.28765 58.1777 12.5636H58.1759Z" fill="#B35642"/>
    <path d="M37.4398 12.5637L30.0052 27.3938C29.4572 28.4881 28.3399 29.178 27.1161 29.178H10.0903C10.0673 29.178 10.0442 29.1745 10.0229 29.1674C10.5107 29.1017 10.9718 28.8109 11.2272 28.3001L19.2772 10.1392L21.9517 4.80095C24.0941 0.52499 29.2976 -1.20419 33.5771 0.938221C37.853 3.08063 39.5822 8.28769 37.4416 12.5637H37.4398Z" fill="#B35642"/>
    <path d="M19.2771 10.141L11.2271 28.3019C10.9717 28.8109 10.5105 29.1035 10.0228 29.1691C9.39678 29.2561 8.72284 28.9776 8.38055 28.3303L1.05236 12.6807C-1.16631 8.442 0.472419 3.20657 4.70936 0.989667C8.94985 -1.23078 14.1835 0.409726 16.4004 4.64667L19.2771 10.1393V10.141Z" fill="#75291A"/>
    <path d="M86.0288 3.6943H83.0103L80.3163 11.5084L76.7764 3.0647L73.2737 11.5084L70.5425 3.6943H67.5239L72.8072 16.9709L76.7764 8.70627L80.7296 16.9709L86.0288 3.6943Z" fill="#27272A"/>
    <path d="M91.8073 15.9102C92.4954 15.5502 93.0399 15.0448 93.4424 14.3921C93.8433 13.7395 94.0437 12.9875 94.0437 12.138C94.0437 11.2885 93.8433 10.5205 93.4424 9.87495C93.0399 9.22762 92.4954 8.72394 91.8073 8.36569C91.1191 8.00744 90.337 7.82654 89.4627 7.82654C88.5883 7.82654 87.8062 8.00744 87.1181 8.36569C86.4299 8.72394 85.8837 9.22762 85.4829 9.87495C85.0821 10.5223 84.8799 11.276 84.8799 12.138C84.8799 12.9999 85.0803 13.7395 85.4829 14.3921C85.8837 15.0448 86.4282 15.5502 87.1181 15.9102C87.8062 16.2685 88.5883 16.4494 89.4627 16.4494C90.337 16.4494 91.1191 16.2703 91.8073 15.9102ZM87.549 13.367C87.3522 13.0141 87.2529 12.6044 87.2529 12.1362C87.2529 11.668 87.3522 11.2565 87.549 10.8965C87.7459 10.5383 88.0119 10.2616 88.3489 10.07C88.6841 9.8785 89.0548 9.78273 89.4627 9.78273C89.8706 9.78273 90.2412 9.8785 90.5764 10.07C90.9116 10.2616 91.1777 10.5365 91.3763 10.8965C91.5749 11.2565 91.6725 11.6698 91.6725 12.1362C91.6725 12.6026 91.5732 13.0141 91.3763 13.367C91.1794 13.7199 90.9116 13.9966 90.5764 14.1935C90.2412 14.3903 89.8688 14.4897 89.4627 14.4897C89.0565 14.4897 88.6841 14.3903 88.3489 14.1935C88.0137 13.9966 87.7459 13.7199 87.549 13.367Z" fill="#27272A"/>
    <path d="M100.118 16.0805C100.524 15.8357 100.861 15.4775 101.123 15.011V16.2685H103.441V8.00385H101.123V13.0336C101.123 13.3812 101.054 13.6809 100.918 13.931C100.779 14.1828 100.588 14.3779 100.343 14.5144C100.098 14.651 99.8075 14.7202 99.4723 14.7202C98.9934 14.7202 98.6458 14.573 98.4295 14.2803C98.2131 13.9859 98.1067 13.5709 98.1067 13.0318V8.00208H95.6982V13.2836C95.6982 14.2662 95.9412 15.0376 96.4254 15.6016C96.9096 16.1656 97.6438 16.4458 98.6263 16.4458C99.2134 16.4458 99.7099 16.3234 100.118 16.0769V16.0805Z" fill="#27272A"/>
    <path d="M110.754 7.82483C110.167 7.82483 109.667 7.9472 109.253 8.19372C108.84 8.43847 108.508 8.79495 108.257 9.26315V8.00573H105.921V16.2703H108.257V11.2406C108.257 10.893 108.322 10.5933 108.453 10.3432C108.585 10.0914 108.776 9.8963 109.028 9.75974C109.28 9.62318 109.567 9.55401 109.89 9.55401C110.369 9.55401 110.716 9.69767 110.931 9.98498C111.147 10.2723 111.254 10.6926 111.254 11.2424V16.2721H113.662V10.9906C113.662 9.99739 113.423 9.22059 112.944 8.6637C112.465 8.10682 111.734 7.82838 110.752 7.82838L110.754 7.82483Z" fill="#27272A"/>
    <path d="M124.569 16.2702V2.25586H122.234V9.33398C121.968 8.92785 121.641 8.59797 121.255 8.34613C120.723 7.99852 120.107 7.82472 119.414 7.82472C118.72 7.82472 118.084 7.9932 117.474 8.3284C116.862 8.66359 116.37 9.15308 116 9.79332C115.629 10.4336 115.443 11.2157 115.443 12.1379C115.443 13.0602 115.629 13.8263 116 14.4736C116.37 15.121 116.862 15.6122 117.474 15.9457C118.084 16.2809 118.731 16.4494 119.414 16.4494C120.097 16.4494 120.723 16.2755 121.255 15.9279C121.641 15.6761 121.968 15.3444 122.234 14.9348V16.2685H124.569V16.2702ZM121.92 13.4308C121.71 13.7908 121.441 14.0622 121.111 14.2484C120.781 14.4346 120.442 14.5269 120.097 14.5269C119.701 14.5269 119.33 14.4311 118.983 14.2395C118.635 14.048 118.36 13.7731 118.156 13.4131C117.952 13.0548 117.851 12.6292 117.851 12.1379C117.851 11.6467 117.952 11.221 118.156 10.8628C118.36 10.5045 118.635 10.2278 118.983 10.0363C119.33 9.84476 119.701 9.74899 120.097 9.74899C120.444 9.74899 120.781 9.84121 121.111 10.0274C121.441 10.2136 121.71 10.485 121.92 10.845C122.129 11.205 122.234 11.636 122.234 12.1397C122.234 12.6434 122.129 13.0743 121.92 13.4326V13.4308Z" fill="#27272A"/>
    <path d="M138.94 3.44245C137.983 3.44245 137.092 3.59852 136.273 3.90889C135.452 4.22103 134.739 4.66973 134.134 5.25677C133.529 5.8438 133.063 6.53548 132.733 7.33179C132.403 8.1281 132.238 9.01131 132.238 9.98143C132.238 10.9515 132.403 11.8348 132.733 12.6311C133.063 13.4274 133.529 14.1191 134.134 14.7061C134.739 15.2931 135.452 15.7418 136.273 16.054C137.092 16.3643 137.983 16.5204 138.94 16.5204C139.898 16.5204 140.627 16.4069 141.232 16.1781C141.837 15.9511 142.397 15.6336 142.911 15.2257V12.3331C142.636 12.6453 142.31 12.9326 141.932 13.195C141.555 13.4593 141.132 13.6686 140.666 13.8246C140.2 13.9807 139.666 14.0588 139.066 14.0588C138.348 14.0588 137.683 13.8938 137.071 13.5639C136.461 13.2341 135.966 12.7605 135.588 12.1451C135.211 11.5279 135.023 10.8061 135.023 9.97965C135.023 9.15319 135.211 8.41718 135.588 7.80532C135.966 7.19523 136.459 6.72524 137.071 6.39537C137.683 6.06549 138.346 5.90055 139.066 5.90055C139.666 5.90055 140.198 5.97859 140.666 6.13466C141.132 6.29073 141.555 6.50001 141.932 6.76249C142.31 7.02674 142.636 7.31405 142.911 7.62442V4.7318C142.397 4.32389 141.837 4.00643 141.232 3.77942C140.627 3.55241 139.864 3.43713 138.94 3.43713V3.44245Z" fill="#27272A"/>
    <path d="M150.869 8.09435C150.318 7.8904 149.69 7.78931 148.982 7.78931C148.216 7.78931 147.521 7.89394 146.898 8.10322C146.276 8.3125 145.749 8.53064 145.318 8.75942L146.18 10.3414C146.299 10.258 146.485 10.1552 146.737 10.0364C146.989 9.91753 147.288 9.81467 147.636 9.73131C147.984 9.64796 148.347 9.60539 148.732 9.60539C148.984 9.60539 149.211 9.63022 149.415 9.67633C149.619 9.72422 149.794 9.80225 149.945 9.91044C150.094 10.0186 150.206 10.1534 150.277 10.3148C150.349 10.4762 150.385 10.6713 150.385 10.8983V11.778C150.108 11.6219 149.771 11.4906 149.37 11.3825C148.97 11.2743 148.505 11.2211 147.978 11.2211C146.948 11.2211 146.152 11.4552 145.589 11.9216C145.027 12.388 144.745 13.023 144.745 13.8264C144.745 14.3886 144.88 14.8657 145.149 15.2541C145.419 15.6442 145.776 15.9404 146.219 16.1444C146.662 16.3483 147.141 16.4494 147.655 16.4494C148.17 16.4494 148.642 16.3607 149.103 16.1798C149.564 16.0007 149.942 15.7311 150.234 15.3711C150.291 15.3019 150.341 15.2275 150.387 15.1512V16.2703H152.632V10.4141C152.632 9.85191 152.476 9.37483 152.166 8.98643C151.853 8.59803 151.422 8.30008 150.873 8.0979L150.869 8.09435ZM150.115 13.9789C149.936 14.2609 149.702 14.4755 149.415 14.6262C149.127 14.7752 148.805 14.8515 148.445 14.8515C148.193 14.8515 147.962 14.8071 147.753 14.7167C147.544 14.6262 147.379 14.495 147.258 14.3212C147.138 14.1474 147.079 13.9417 147.079 13.7022C147.079 13.4628 147.132 13.2624 147.24 13.101C147.349 12.9396 147.517 12.8137 147.744 12.7232C147.971 12.6346 148.266 12.5885 148.624 12.5885C149.067 12.5885 149.489 12.6488 149.89 12.7676C150.062 12.819 150.227 12.8846 150.385 12.9573V12.9644C150.385 13.3599 150.294 13.6987 150.115 13.9789Z" fill="#27272A"/>
    <path d="M159.986 7.97023C159.717 7.86204 159.431 7.80884 159.133 7.80884C158.702 7.80884 158.282 7.96136 157.876 8.26641C157.599 8.47391 157.362 8.73284 157.158 9.03257V8.0057H154.877V16.2703H157.158V11.8862C157.158 11.4907 157.209 11.1537 157.31 10.8717C157.411 10.5897 157.564 10.3716 157.768 10.2155C157.972 10.0594 158.216 9.9814 158.504 9.9814C158.743 9.9814 158.944 10.0204 159.107 10.0985C159.268 10.1765 159.428 10.2864 159.582 10.4301L160.643 8.4544C160.474 8.23803 160.256 8.07664 159.986 7.96846V7.97023Z" fill="#27272A"/>
    <path d="M169.878 14.1137L167.847 13.4858C167.608 13.8813 167.304 14.1775 166.939 14.3744C166.574 14.5712 166.134 14.6706 165.618 14.6706C165.162 14.6706 164.773 14.5695 164.451 14.3655C164.128 14.1616 163.885 13.8689 163.724 13.4858C163.622 13.2446 163.557 12.9662 163.518 12.6594H169.876C169.888 12.5867 169.897 12.4909 169.902 12.3721C169.908 12.2515 169.911 12.138 169.911 12.0298C169.911 11.1448 169.743 10.3857 169.408 9.7579C169.072 9.13008 168.583 8.64945 167.943 8.32135C167.303 7.99148 166.526 7.82654 165.616 7.82654C164.706 7.82654 163.915 8.00389 163.245 8.35682C162.574 8.70975 162.056 9.20634 161.691 9.84835C161.326 10.4886 161.143 11.253 161.143 12.1397C161.143 13.0265 161.326 13.7714 161.691 14.4116C162.056 15.0519 162.574 15.552 163.245 15.912C163.915 16.2703 164.701 16.4512 165.598 16.4512C166.591 16.4512 167.446 16.2579 168.159 15.8677C168.872 15.4775 169.443 14.894 169.876 14.1154L169.878 14.1137ZM164.442 9.75613C164.747 9.55927 165.128 9.45995 165.582 9.45995C165.953 9.45995 166.277 9.54331 166.552 9.71179C166.827 9.88028 167.04 10.1073 167.191 10.3946C167.313 10.6287 167.382 10.9071 167.405 11.2211H163.571C163.614 11.0082 163.669 10.8114 163.741 10.6376C163.903 10.2492 164.137 9.95476 164.442 9.7579V9.75613Z" fill="#27272A"/>
    <path d="M69.6987 23.8663H68.8545V36.4424H69.6987H70.3815H76.0408V35.0058H70.3815V30.3344H75.6808V28.896H70.3815V25.3047H76.0408V23.8663H70.3815H69.6987Z" fill="#27272A"/>
    <path d="M84.22 29.609C83.9522 29.1567 83.617 28.7914 83.2144 28.52C82.7001 28.1724 82.0953 27.9986 81.4001 27.9986C80.657 27.9986 79.9741 28.1724 79.3516 28.52C78.7291 28.8676 78.2326 29.3607 77.8601 30.0027C77.4894 30.6429 77.3032 31.4126 77.3032 32.3118C77.3032 33.211 77.4894 33.9647 77.8601 34.6121C78.2308 35.2594 78.7291 35.756 79.3516 36.1036C79.9741 36.4512 80.657 36.625 81.4001 36.625C82.0953 36.625 82.7001 36.4512 83.2144 36.1036C83.6187 35.8305 83.9522 35.4651 84.22 35.0093V36.4459H85.6565V22.4315H84.22V29.6107V29.609ZM83.8227 33.9275C83.5584 34.3709 83.2232 34.7061 82.8171 34.9331C82.4092 35.1619 81.996 35.2754 81.5774 35.2754C81.0737 35.2754 80.6073 35.1619 80.1763 34.9331C79.7454 34.7061 79.4013 34.3709 79.1424 33.9275C78.8852 33.4841 78.7557 32.945 78.7557 32.31C78.7557 31.6751 78.8834 31.136 79.1424 30.6926C79.3995 30.2492 79.7454 29.914 80.1763 29.687C80.6073 29.46 81.0737 29.3465 81.5774 29.3465C81.996 29.3465 82.4092 29.46 82.8171 29.687C83.2232 29.9158 83.5602 30.251 83.8227 30.6926C84.0852 31.136 84.2182 31.6751 84.2182 32.31C84.2182 32.945 84.0852 33.4841 83.8227 33.9275Z" fill="#27272A"/>
    <path d="M93.3839 33.2092C93.3839 33.6171 93.297 33.9754 93.1232 34.2875C92.9494 34.5997 92.7029 34.8426 92.3872 35.0147C92.0698 35.1885 91.7009 35.2754 91.2823 35.2754C90.7077 35.2754 90.2696 35.0962 89.9717 34.7362C89.672 34.378 89.523 33.869 89.523 33.2092V28.1795H88.0864V33.3901C88.0864 34.3726 88.3436 35.1565 88.8597 35.7436C89.374 36.3306 90.0639 36.6232 90.9258 36.6232C91.4774 36.6232 91.9562 36.5009 92.3624 36.2543C92.7685 36.0096 93.1108 35.6407 93.3857 35.1494V36.4423H94.8223V28.1777H93.3857V33.2074L93.3839 33.2092Z" fill="#27272A"/>
    <path d="M102.539 28.277C102.005 28.0908 101.457 27.9985 100.895 27.9985C100.093 27.9985 99.3678 28.1848 98.7222 28.5554C98.0749 28.9261 97.5641 29.4351 97.1864 30.0824C96.8086 30.7298 96.6206 31.4711 96.6206 32.31C96.6206 33.1488 96.8086 33.876 97.1864 34.5286C97.5641 35.1813 98.0749 35.6938 98.7222 36.0645C99.3696 36.4352 100.093 36.6214 100.895 36.6214C101.457 36.6214 102.005 36.5292 102.539 36.343C103.071 36.1585 103.482 35.8978 103.77 35.5626V33.766C103.649 34.0303 103.447 34.2768 103.16 34.5109C102.872 34.745 102.534 34.9312 102.143 35.0678C101.753 35.2061 101.338 35.2735 100.895 35.2735C100.356 35.2735 99.8732 35.1458 99.4476 34.8869C99.022 34.6297 98.6868 34.2786 98.442 33.8352C98.1955 33.3918 98.0731 32.8828 98.0731 32.3082C98.0731 31.7336 98.1955 31.221 98.442 30.7723C98.6868 30.3236 99.022 29.9725 99.4476 29.7224C99.8732 29.4706 100.356 29.3446 100.895 29.3446C101.338 29.3446 101.755 29.4138 102.143 29.5504C102.532 29.6887 102.87 29.8714 103.16 30.0984C103.447 30.3272 103.651 30.5772 103.77 30.8539V29.0573C103.482 28.7221 103.071 28.4614 102.539 28.2752V28.277Z" fill="#27272A"/>
    <path d="M110.965 28.2947C110.479 28.0979 109.915 27.9985 109.268 27.9985C108.501 27.9985 107.845 28.112 107.301 28.3408C106.754 28.5678 106.327 28.7966 106.017 29.0236L106.717 30.0842C106.848 29.9884 107.029 29.8749 107.256 29.7437C107.483 29.6124 107.762 29.4989 108.092 29.4014C108.422 29.3056 108.79 29.2577 109.197 29.2577C109.448 29.2577 109.688 29.2826 109.915 29.3305C110.142 29.3783 110.342 29.4564 110.516 29.5646C110.69 29.6727 110.825 29.8182 110.92 30.0044C111.016 30.1906 111.064 30.4265 111.064 30.7138V31.9109C110.839 31.7655 110.557 31.6325 110.211 31.5137C109.81 31.3771 109.31 31.3079 108.711 31.3079C107.693 31.3079 106.9 31.5509 106.331 32.0351C105.761 32.521 105.478 33.1648 105.478 33.9664C105.478 34.5286 105.609 35.0075 105.873 35.403C106.136 35.7985 106.487 36.1 106.923 36.311C107.361 36.5203 107.831 36.6249 108.333 36.6249C108.789 36.6249 109.246 36.5416 109.707 36.3731C110.168 36.2064 110.557 35.9475 110.874 35.6016C110.945 35.5236 111.007 35.4402 111.064 35.3533V36.4458H112.501V30.5169C112.501 29.9778 112.366 29.522 112.096 29.1513C111.827 28.7807 111.449 28.4951 110.965 28.2983V28.2947ZM110.75 34.3495C110.541 34.6794 110.259 34.933 109.906 35.1139C109.553 35.293 109.154 35.3835 108.711 35.3835C108.363 35.3835 108.054 35.3267 107.785 35.2132C107.515 35.0997 107.306 34.9295 107.155 34.7024C107.006 34.4737 106.93 34.2059 106.93 33.8937C106.93 33.5816 107.003 33.3368 107.146 33.1205C107.29 32.9041 107.508 32.7374 107.803 32.6168C108.095 32.498 108.477 32.4377 108.943 32.4377C109.447 32.4377 109.918 32.5015 110.362 32.6257C110.599 32.693 110.832 32.7853 111.062 32.8988V33.2091C111.062 33.6401 110.958 34.0214 110.748 34.3495H110.75Z" fill="#27272A"/>
    <path d="M116.81 25.3046H115.374V28.1794H114.026V29.5255H115.374V36.4423H116.81V29.5255H118.158V28.1794H116.81V25.3046Z" fill="#27272A"/>
    <path d="M121.48 28.1794H120.043V36.4441H121.48V28.1794Z" fill="#27272A"/>
    <path d="M120.764 23.7776C120.501 23.7776 120.269 23.8734 120.072 24.0649C119.875 24.2564 119.776 24.4905 119.776 24.7654C119.776 25.0403 119.875 25.2602 120.072 25.4571C120.269 25.654 120.501 25.7533 120.764 25.7533C121.026 25.7533 121.273 25.654 121.464 25.4571C121.656 25.2602 121.752 25.0297 121.752 24.7654C121.752 24.5012 121.656 24.2564 121.464 24.0649C121.273 23.8734 121.039 23.7776 120.764 23.7776Z" fill="#27272A"/>
    <path d="M129.828 28.5554C129.188 28.1848 128.46 27.9985 127.645 27.9985C126.829 27.9985 126.118 28.1848 125.47 28.5554C124.823 28.9261 124.312 29.4351 123.934 30.0824C123.557 30.7298 123.369 31.4711 123.369 32.31C123.369 33.1488 123.557 33.876 123.934 34.5286C124.312 35.1813 124.823 35.6938 125.47 36.0645C126.118 36.4352 126.841 36.6214 127.645 36.6214C128.448 36.6214 129.186 36.437 129.828 36.0645C130.468 35.6938 130.979 35.1813 131.355 34.5286C131.733 33.876 131.921 33.1364 131.921 32.31C131.921 31.4835 131.733 30.7298 131.355 30.0824C130.977 29.4351 130.468 28.9279 129.828 28.5554ZM130.097 33.837C129.853 34.2803 129.517 34.6297 129.092 34.8887C128.666 35.1458 128.184 35.2753 127.645 35.2753C127.105 35.2753 126.623 35.1476 126.197 34.8887C125.772 34.6315 125.437 34.2803 125.192 33.837C124.947 33.3936 124.823 32.8846 124.823 32.31C124.823 31.7353 124.945 31.2228 125.192 30.7741C125.437 30.3254 125.772 29.9742 126.197 29.7242C126.623 29.4723 127.105 29.3464 127.645 29.3464C128.184 29.3464 128.666 29.4723 129.092 29.7242C129.517 29.976 129.853 30.3254 130.097 30.7741C130.342 31.2228 130.466 31.7353 130.466 32.31C130.466 32.8846 130.344 33.3936 130.097 33.837Z" fill="#27272A"/>
    <path d="M137.527 27.9985C136.987 27.9985 136.512 28.1191 136.099 28.3586C135.686 28.598 135.342 28.9687 135.065 29.4723V28.1794H133.628V36.444H135.065V31.4143C135.065 31.0064 135.152 30.6482 135.326 30.336C135.499 30.0257 135.744 29.7827 136.062 29.6089C136.379 29.4351 136.748 29.3482 137.167 29.3482C137.741 29.3482 138.179 29.522 138.477 29.8696C138.777 30.2172 138.926 30.7315 138.926 31.4143V36.444H140.362V31.2334C140.362 30.2403 140.109 29.4528 139.598 28.8711C139.089 28.2912 138.397 27.9985 137.523 27.9985H137.527Z" fill="#27272A"/>
    <path d="M151.135 23.8663H149.608V36.4424H151.135V23.8663Z" fill="#27272A"/>
    <path d="M157.638 27.9985C157.099 27.9985 156.624 28.1191 156.211 28.3586C155.798 28.598 155.453 28.9687 155.177 29.4723V28.1794H153.74V36.444H155.177V31.4143C155.177 31.0064 155.264 30.6482 155.437 30.336C155.611 30.0257 155.856 29.7827 156.174 29.6089C156.491 29.4351 156.86 29.3482 157.278 29.3482C157.853 29.3482 158.291 29.522 158.589 29.8696C158.889 30.2172 159.038 30.7315 159.038 31.4143V36.444H160.474V31.2334C160.474 30.2403 160.221 29.4528 159.71 28.8711C159.201 28.2912 158.509 27.9985 157.635 27.9985H157.638Z" fill="#27272A"/>
    <path d="M166.946 32.1042C166.55 31.8825 166.112 31.6768 165.634 31.4835C165.346 31.3647 165.071 31.2388 164.807 31.1057C164.545 30.9745 164.328 30.8238 164.16 30.657C163.991 30.4886 163.908 30.297 163.908 30.0824C163.908 29.8075 164.016 29.6036 164.231 29.4723C164.445 29.3411 164.704 29.2755 165.004 29.2755C165.435 29.2755 165.822 29.3766 166.162 29.5805C166.504 29.7845 166.788 30.0416 167.015 30.352L168.164 29.616C167.996 29.3056 167.764 29.029 167.464 28.7895C167.164 28.5501 166.82 28.3586 166.432 28.2149C166.041 28.0712 165.626 27.9985 165.183 27.9985C164.74 27.9985 164.312 28.0766 163.899 28.2326C163.486 28.3887 163.151 28.6281 162.893 28.9509C162.636 29.2737 162.507 29.6816 162.507 30.1729C162.507 30.6641 162.629 31.0508 162.876 31.3682C163.12 31.6857 163.427 31.9428 163.793 32.1415C164.158 32.3383 164.52 32.5104 164.88 32.6523C165.203 32.7729 165.508 32.9005 165.797 33.0389C166.084 33.1772 166.32 33.3439 166.506 33.5408C166.691 33.7394 166.785 33.9806 166.785 34.2679C166.785 34.5907 166.668 34.8461 166.435 35.0323C166.201 35.2185 165.88 35.3108 165.474 35.3108C165.139 35.3108 164.83 35.2469 164.548 35.1228C164.266 34.9968 164.018 34.8266 163.803 34.6102C163.587 34.3939 163.397 34.1615 163.229 33.9097L162.097 34.6102C162.253 34.933 162.484 35.2505 162.789 35.5626C163.094 35.873 163.468 36.1284 163.911 36.327C164.355 36.5239 164.851 36.6232 165.403 36.6232C166.253 36.6232 166.939 36.3837 167.46 35.9049C167.982 35.426 168.241 34.8266 168.241 34.1083C168.241 33.6171 168.124 33.2162 167.891 32.9041C167.657 32.5937 167.343 32.3259 166.948 32.1042H166.946Z" fill="#27272A"/>
    <path d="M172.01 25.3046H170.573V28.1794H169.225V29.5255H170.573V36.4423H172.01V29.5255H173.357V28.1794H172.01V25.3046Z" fill="#27272A"/>
    <path d="M176.858 28.1794H175.422V36.4441H176.858V28.1794Z" fill="#27272A"/>
    <path d="M176.14 23.7776C175.875 23.7776 175.645 23.8734 175.448 24.0649C175.251 24.2564 175.152 24.4905 175.152 24.7654C175.152 25.0403 175.251 25.2602 175.448 25.4571C175.645 25.654 175.875 25.7533 176.14 25.7533C176.404 25.7533 176.649 25.654 176.84 25.4571C177.032 25.2602 177.128 25.0297 177.128 24.7654C177.128 24.5012 177.032 24.2564 176.84 24.0649C176.649 23.8734 176.415 23.7776 176.14 23.7776Z" fill="#27272A"/>
    <path d="M181.707 25.3046H180.27V28.1794H178.922V29.5255H180.27V36.4423H181.707V29.5255H183.055V28.1794H181.707V25.3046Z" fill="#27272A"/>
    <path d="M190.147 33.2092C190.147 33.6171 190.06 33.9754 189.886 34.2875C189.713 34.5997 189.466 34.8426 189.15 35.0147C188.833 35.1885 188.464 35.2754 188.045 35.2754C187.471 35.2754 187.033 35.0962 186.735 34.7362C186.435 34.378 186.286 33.869 186.286 33.2092V28.1795H184.85V33.3901C184.85 34.3726 185.107 35.1565 185.623 35.7436C186.137 36.3306 186.827 36.6232 187.689 36.6232C188.241 36.6232 188.719 36.5009 189.126 36.2543C189.532 36.0096 189.874 35.6407 190.149 35.1494V36.4423H191.585V28.1777H190.149V33.2074L190.147 33.2092Z" fill="#27272A"/>
    <path d="M196.165 25.3046H194.728V28.1794H193.38V29.5255H194.728V36.4423H196.165V29.5255H197.513V28.1794H196.165V25.3046Z" fill="#27272A"/>
    <path d="M206.116 29.9743C205.804 29.3394 205.359 28.8517 204.777 28.5094C204.195 28.1689 203.498 27.9968 202.684 27.9968C201.87 27.9968 201.154 28.1777 200.537 28.536C199.919 28.8942 199.44 29.3979 199.1 30.0452C198.759 30.6926 198.587 31.4463 198.587 32.3083C198.587 33.1702 198.752 33.908 199.082 34.5535C199.412 35.1991 199.873 35.7063 200.466 36.0717C201.058 36.437 201.737 36.6197 202.505 36.6197C203.392 36.6197 204.162 36.4423 204.814 36.0894C205.467 35.7365 206.01 35.2115 206.441 34.5163L205.274 33.7803C204.974 34.284 204.609 34.6582 204.178 34.9029C203.747 35.1477 203.25 35.2718 202.686 35.2718C202.122 35.2718 201.643 35.153 201.249 34.9136C200.856 34.6741 200.554 34.3265 200.352 33.8707C200.198 33.5249 200.102 33.1241 200.065 32.6665H206.568C206.568 32.6435 206.572 32.5867 206.577 32.4962C206.582 32.4058 206.586 32.3189 206.586 32.2355C206.586 31.3612 206.43 30.6074 206.12 29.9725L206.116 29.9743ZM201.274 29.6072C201.663 29.3731 202.134 29.2578 202.684 29.2578C203.151 29.2578 203.559 29.3589 203.906 29.5628C204.254 29.7668 204.527 30.0488 204.724 30.407C204.889 30.7068 204.981 31.0562 205.008 31.4499H200.118C200.173 31.1413 200.256 30.8611 200.375 30.6145C200.584 30.1765 200.884 29.8413 201.273 29.609L201.274 29.6072Z" fill="#27272A"/>
  </g>
  <defs>
    <clipPath id="clip0_1243_2374">
      <rect width="206.645" height="40" fill="white"/>
    </clipPath>
  </defs>
</svg>
