<?xml version="1.0" standalone="no"?>
<!DOCTYPE svg PUBLIC "-//W3C//DTD SVG 20010904//EN"
 "http://www.w3.org/TR/2001/REC-SVG-20010904/DTD/svg10.dtd">
<svg version="1.0" xmlns="http://www.w3.org/2000/svg"
 width="1328.000000pt" height="1328.000000pt" viewBox="0 0 1328.000000 1328.000000"
 preserveAspectRatio="xMidYMid meet">
<metadata>
Created by potrace 1.14, written by Peter Selinger 2001-2017
</metadata>
<g transform="translate(0.000000,1328.000000) scale(0.100000,-0.100000)"
fill="#000000" stroke="none">
<path d="M5300 11281 c0 -4 -21 -45 -47 -91 -27 -45 -60 -103 -74 -128 -83
-151 -164 -287 -171 -290 -4 -2 -8 -12 -8 -22 0 -10 -6 -25 -13 -32 -7 -7 -53
-84 -102 -171 -50 -88 -102 -180 -117 -205 -15 -26 -32 -59 -39 -74 -6 -16
-15 -28 -20 -28 -5 0 -9 -7 -9 -15 0 -9 -5 -21 -10 -28 -15 -17 -140 -237
-151 -264 -5 -13 -13 -23 -19 -23 -6 0 -9 -4 -5 -9 3 -5 1 -12 -5 -16 -5 -3
-19 -25 -30 -48 -11 -23 -32 -60 -45 -82 -14 -22 -33 -57 -42 -77 -10 -21 -21
-38 -25 -38 -5 0 -8 -4 -8 -9 0 -7 -121 -226 -150 -271 -6 -8 -16 -26 -22 -40
-7 -14 -15 -27 -18 -30 -5 -5 -7 -8 -65 -115 -21 -38 -46 -82 -57 -97 -10 -14
-18 -28 -18 -31 0 -7 -82 -150 -90 -157 -3 -3 -14 -24 -25 -47 -11 -24 -23
-43 -27 -43 -5 0 -8 -5 -8 -10 0 -10 -99 -190 -110 -200 -3 -3 -11 -16 -17
-30 -7 -14 -23 -43 -36 -65 -69 -120 -92 -160 -92 -165 0 -3 -12 -23 -26 -45
-14 -22 -55 -91 -90 -153 -35 -63 -76 -135 -91 -160 -14 -26 -37 -67 -50 -92
-13 -25 -25 -47 -28 -50 -12 -11 -100 -170 -100 -180 0 -5 -3 -10 -7 -10 -5 0
-13 -10 -18 -23 -16 -34 -59 -111 -66 -117 -3 -3 -13 -21 -22 -40 -10 -19 -26
-48 -36 -65 -10 -16 -29 -50 -43 -75 -104 -184 -193 -340 -209 -365 -10 -16
-22 -37 -26 -45 -4 -8 -28 -51 -53 -95 -26 -44 -116 -201 -200 -350 -84 -148
-157 -273 -162 -276 -6 -3 -9 -8 -7 -10 4 -8 -13 -49 -21 -49 -4 0 -13 -12
-19 -27 -6 -16 -19 -41 -29 -58 -10 -16 -32 -55 -49 -85 -17 -30 -71 -126
-120 -212 -50 -86 -93 -163 -97 -170 -3 -7 -17 -31 -31 -53 -14 -22 -30 -51
-36 -65 -6 -13 -13 -27 -17 -30 -4 -3 -14 -19 -23 -35 -29 -58 -64 -120 -69
-125 -4 -4 -24 -39 -54 -95 -6 -11 -15 -23 -19 -26 -5 -3 -7 -8 -6 -10 2 -2
-16 -36 -39 -75 -22 -39 -46 -83 -53 -97 -7 -15 -16 -27 -21 -27 -4 0 -7 -3
-6 -7 3 -13 -24 -63 -34 -63 -4 0 -8 -9 -8 -19 0 -11 -4 -22 -9 -25 -11 -7
-132 -219 -144 -253 -5 -13 -13 -23 -18 -23 -5 0 -9 -4 -9 -9 0 -9 -49 -99
-88 -161 -9 -14 -16 -27 -16 -30 0 -3 -6 -11 -13 -18 -7 -7 -13 -20 -13 -27 0
-7 -6 -20 -13 -27 -7 -7 -31 -47 -52 -88 -22 -41 -42 -77 -45 -80 -3 -3 -46
-77 -95 -165 -50 -88 -95 -169 -102 -180 -7 -11 -20 -36 -30 -55 -10 -19 -21
-37 -24 -40 -4 -3 -21 -32 -38 -65 -61 -113 -97 -175 -109 -187 -7 -7 -12 -15
-12 -19 0 -4 -43 -82 -95 -173 -52 -91 -95 -170 -95 -176 0 -5 -4 -10 -9 -10
-5 0 -11 -8 -14 -18 -3 -9 -20 -39 -36 -67 -17 -27 -34 -57 -37 -65 -4 -8 -17
-28 -28 -45 -12 -16 -20 -32 -18 -35 1 -3 -5 -13 -13 -22 -8 -10 -12 -18 -8
-18 3 0 -1 -8 -9 -17 -9 -10 -19 -28 -22 -40 -4 -13 -12 -23 -17 -23 -5 0 -9
-4 -9 -10 0 -5 -14 -33 -31 -62 -17 -29 -47 -82 -66 -118 -20 -36 -41 -72 -48
-80 -6 -8 -21 -33 -32 -55 -27 -55 -125 -229 -132 -235 -3 -3 -22 -35 -41 -72
-19 -37 -38 -68 -42 -68 -5 0 -8 -4 -8 -10 0 -14 13266 -14 13275 0 3 6 2 10
-4 10 -5 0 -13 10 -17 23 -4 12 -10 24 -13 27 -6 5 -78 124 -109 180 -7 14
-21 37 -30 52 -26 41 -87 142 -91 152 -2 5 -25 44 -52 88 -27 44 -49 84 -49
89 0 5 -4 9 -10 9 -5 0 -10 4 -10 10 0 5 -31 61 -70 125 -38 64 -70 118 -70
121 0 3 -8 18 -19 32 -10 15 -56 90 -101 167 -46 77 -90 152 -99 166 -60 99
-85 145 -83 151 1 5 -2 8 -7 8 -5 0 -14 14 -21 30 -7 17 -15 30 -19 30 -4 0
-12 12 -19 28 -7 15 -18 36 -25 47 -6 11 -39 65 -71 120 -33 55 -99 167 -148
248 -48 81 -88 152 -88 157 0 4 -4 10 -8 12 -4 1 -23 30 -41 63 -19 33 -37 62
-40 65 -4 3 -15 21 -25 40 -9 19 -23 44 -29 55 -7 11 -74 124 -149 250 -76
127 -138 234 -137 238 0 5 -9 17 -20 26 -12 10 -21 23 -21 29 0 7 -16 36 -35
66 -19 30 -35 59 -35 65 0 5 -3 11 -8 13 -9 4 -112 177 -112 189 0 5 -4 9 -10
9 -5 0 -10 4 -10 10 0 11 -86 157 -108 183 -8 9 -11 17 -7 17 4 0 1 8 -7 18
-8 9 -48 73 -88 142 -40 69 -80 133 -88 143 -8 9 -12 17 -8 17 4 0 -12 27 -34
60 -22 33 -37 60 -33 60 4 0 3 4 -2 8 -6 4 -46 68 -90 142 -44 74 -85 143 -92
155 -7 11 -16 27 -20 35 -4 8 -29 50 -55 92 -26 43 -48 80 -48 82 0 5 -44 74
-58 91 -4 6 -10 15 -12 20 -1 6 -13 26 -25 45 -12 19 -25 42 -28 50 -4 8 -16
29 -27 45 -11 17 -23 37 -27 45 -4 8 -29 50 -55 92 -26 43 -48 81 -48 84 0 4
-11 22 -25 40 -14 18 -25 35 -25 38 0 3 -34 61 -75 129 -41 69 -75 129 -75
135 0 6 -4 12 -8 14 -5 2 -26 34 -48 71 -21 38 -47 81 -57 95 -9 15 -20 35
-23 45 -4 9 -11 17 -16 17 -5 0 -6 5 -3 10 3 6 2 10 -2 10 -5 0 -14 12 -20 28
-15 34 -43 80 -65 106 -10 11 -18 23 -18 28 0 4 -45 83 -100 174 -55 92 -100
169 -100 171 0 2 -13 23 -28 46 -15 23 -39 63 -52 90 -14 26 -28 47 -32 47 -5
0 -8 5 -8 11 0 6 -13 31 -30 56 -16 24 -30 46 -30 48 0 6 -198 338 -210 352
-5 7 -10 15 -10 18 0 3 -18 35 -40 71 -22 36 -40 70 -40 75 0 5 -4 9 -9 9 -5
0 -11 8 -14 18 -4 9 -18 35 -32 57 -13 22 -30 51 -37 65 -16 31 -53 90 -70
110 -7 8 -13 17 -12 20 1 3 -4 14 -11 25 -38 62 -152 253 -162 272 -38 73 -33
77 -127 -89 -48 -84 -91 -160 -96 -168 -27 -43 -180 -312 -180 -317 0 -3 -10
-19 -22 -36 -13 -18 -23 -34 -23 -37 0 -5 -67 -122 -85 -150 -6 -8 -16 -26
-22 -40 -7 -14 -15 -27 -18 -30 -5 -5 -32 -54 -58 -105 -9 -16 -18 -32 -22
-35 -4 -3 -13 -20 -21 -37 -8 -18 -17 -33 -20 -33 -4 0 -10 -11 -13 -25 -4
-14 -11 -25 -16 -25 -6 0 -10 -5 -10 -11 0 -5 -25 -54 -56 -107 -68 -117 -81
-140 -123 -215 -17 -32 -45 -79 -61 -105 -16 -26 -39 -67 -52 -92 -13 -25 -26
-46 -30 -48 -5 -2 -8 -7 -8 -12 0 -4 -36 -69 -80 -145 -44 -76 -80 -139 -80
-141 0 -3 -12 -23 -27 -46 -19 -31 -28 -38 -32 -28 -8 20 -164 294 -171 300
-3 3 -14 24 -25 47 -11 24 -23 43 -27 43 -5 0 -8 4 -8 9 0 4 -67 126 -150 271
-82 144 -150 266 -150 271 0 5 -4 9 -10 9 -5 0 -10 4 -10 10 0 5 -14 33 -31
62 -18 29 -43 73 -57 98 -14 25 -87 153 -162 285 -76 132 -148 258 -160 280
-12 22 -46 81 -75 130 -54 92 -79 135 -123 215 -14 25 -47 82 -73 128 -27 45
-49 84 -49 86 0 3 -21 40 -46 83 -26 43 -55 93 -65 111 -33 56 -58 101 -80
140 -12 20 -35 62 -52 92 -16 30 -33 60 -37 65 -4 6 -18 28 -30 50 -13 22 -52
92 -88 155 -36 63 -73 129 -83 145 -10 17 -22 37 -26 45 -3 8 -16 31 -28 50
-12 19 -33 55 -47 80 -62 110 -71 126 -80 138 -6 6 -7 12 -2 12 5 0 4 4 -1 8
-6 4 -51 77 -100 162 -48 85 -114 200 -146 255 -31 55 -72 128 -90 163 -18 34
-39 62 -46 62 -7 0 -13 -4 -13 -9z m95 -928 c43 -76 84 -145 91 -153 7 -8 12
-17 11 -20 0 -3 16 -33 36 -68 20 -35 37 -67 37 -73 0 -5 5 -9 10 -9 6 0 10
-4 10 -9 0 -8 172 -313 209 -371 8 -14 16 -27 16 -30 0 -3 17 -33 38 -68 20
-35 37 -67 37 -72 0 -4 4 -10 8 -12 7 -3 47 -72 145 -248 16 -30 38 -67 49
-82 10 -14 18 -29 18 -33 0 -4 9 -20 21 -36 11 -16 17 -29 12 -29 -4 0 -3 -4
2 -8 6 -4 38 -54 70 -112 33 -58 64 -113 70 -122 5 -9 23 -41 39 -70 15 -29
34 -60 40 -68 7 -8 25 -40 40 -70 16 -30 35 -62 42 -71 8 -8 14 -19 14 -23 0
-4 31 -60 68 -124 38 -64 71 -124 75 -132 4 -8 17 -31 28 -50 12 -19 33 -55
47 -80 13 -25 39 -70 57 -100 18 -30 42 -71 52 -90 11 -19 57 -100 103 -180
183 -320 204 -356 223 -390 11 -19 45 -80 77 -135 32 -55 70 -122 85 -150 15
-27 34 -57 41 -66 8 -8 14 -23 14 -32 0 -9 3 -17 8 -17 4 0 20 -26 37 -58 16
-31 33 -60 38 -63 9 -7 -26 -82 -50 -107 -7 -7 -13 -17 -13 -22 0 -8 -120
-221 -129 -230 -4 -3 -13 -18 -21 -35 -8 -16 -24 -46 -36 -65 -23 -39 -53 -92
-128 -225 -27 -49 -52 -92 -55 -95 -3 -3 -15 -23 -26 -45 -11 -22 -22 -42 -25
-45 -3 -3 -10 -14 -16 -25 -42 -77 -70 -127 -100 -176 -19 -31 -34 -60 -34
-65 0 -4 -6 -15 -14 -23 -7 -9 -25 -36 -38 -61 -75 -137 -133 -235 -140 -238
-5 -2 -8 -8 -8 -14 0 -6 -15 -36 -34 -67 -18 -31 -45 -77 -59 -103 -14 -25
-60 -105 -101 -177 -42 -73 -76 -136 -76 -141 0 -6 -4 -10 -10 -10 -5 0 -10
-4 -10 -9 0 -4 -23 -48 -52 -97 -28 -49 -58 -104 -67 -121 -8 -18 -19 -33 -23
-33 -4 0 -8 -4 -8 -9 0 -14 -161 -295 -171 -299 -5 -2 -9 -10 -9 -17 0 -8 -18
-43 -40 -77 -22 -35 -40 -69 -40 -75 0 -7 -4 -13 -10 -13 -5 0 -10 -4 -10 -8
0 -5 -41 -80 -91 -168 -50 -87 -105 -184 -122 -214 -17 -30 -40 -71 -52 -90
-12 -19 -25 -42 -29 -50 -4 -8 -12 -24 -19 -35 -7 -11 -55 -94 -107 -185 -52
-91 -103 -178 -112 -195 -10 -16 -31 -55 -48 -85 -17 -30 -35 -62 -40 -70 -9
-13 -42 -72 -90 -155 -41 -72 -144 -253 -163 -285 -11 -19 -31 -55 -45 -80
-14 -25 -36 -62 -49 -82 l-23 -38 -2091 0 -2091 0 25 43 c14 23 35 60 47 82
28 50 161 283 177 310 7 11 15 27 19 35 4 8 29 52 56 97 26 45 48 84 48 86 0
3 17 34 38 68 34 55 76 130 116 204 6 11 19 31 27 45 9 14 30 50 46 80 17 30
43 78 60 105 16 28 32 57 36 65 4 8 17 31 28 50 12 19 31 53 42 75 12 22 24
42 27 45 3 3 11 16 18 30 8 14 21 39 30 55 72 125 139 242 147 256 6 10 17 30
26 46 8 15 55 98 104 183 48 85 96 169 105 185 9 17 54 95 100 175 45 80 94
165 108 190 14 25 76 133 138 241 62 108 127 223 145 255 18 33 50 87 71 122
21 34 38 64 38 66 0 3 79 143 175 311 96 169 175 310 175 315 0 5 3 10 8 12 4
2 15 19 26 38 10 19 55 98 99 175 117 205 117 205 150 265 17 30 56 99 88 153
32 53 55 97 51 97 -4 0 -2 4 4 8 5 4 28 39 49 77 22 39 45 79 52 90 6 11 19
34 27 50 9 17 29 53 45 80 17 28 36 61 44 75 13 25 230 406 387 680 46 80 90
159 98 175 9 17 19 32 22 35 4 3 10 15 14 28 4 12 12 22 17 22 6 0 8 4 4 9 -3
5 0 13 5 16 6 4 15 17 21 28 5 12 22 45 39 72 16 28 35 61 42 75 7 14 32 57
55 96 24 39 43 75 43 79 0 4 14 27 30 52 17 24 30 46 30 49 0 2 18 34 40 70
22 36 40 68 40 70 0 3 32 59 70 125 39 66 70 124 70 129 0 6 4 10 8 10 4 0 13
12 19 28 15 34 57 107 72 125 6 8 8 17 4 20 -3 4 2 9 11 13 9 3 14 10 11 14
-3 5 0 15 7 22 13 14 16 18 59 98 13 25 26 47 30 50 3 3 15 24 26 47 29 55 47
87 53 93 3 3 11 16 18 30 7 14 23 43 36 65 24 42 65 115 99 175 10 19 23 40
27 45 4 6 27 46 51 90 23 44 45 82 49 85 3 3 12 19 20 35 18 36 182 325 185
325 2 0 38 -62 80 -137z m3517 -1805 c7 -13 11 -26 10 -30 -1 -5 3 -8 8 -8 6
0 10 -4 10 -8 0 -4 65 -117 145 -251 80 -133 145 -246 145 -251 0 -4 4 -10 8
-12 4 -1 25 -32 45 -68 75 -132 89 -156 111 -190 43 -66 116 -193 116 -201 0
-5 5 -9 10 -9 6 0 10 -4 10 -10 0 -5 20 -43 45 -83 25 -41 45 -79 45 -85 0 -6
3 -12 8 -14 8 -3 72 -106 72 -115 0 -4 6 -14 14 -22 8 -9 26 -38 41 -66 14
-27 40 -70 56 -95 16 -25 37 -61 47 -80 10 -19 31 -55 47 -80 16 -25 30 -47
30 -50 0 -3 8 -16 17 -30 19 -30 206 -343 228 -382 30 -54 113 -194 135 -228
20 -31 213 -355 241 -405 6 -11 18 -31 25 -45 8 -14 27 -44 42 -67 15 -24 27
-45 27 -48 0 -4 14 -26 30 -50 17 -24 30 -45 30 -48 0 -2 52 -90 115 -196 63
-106 115 -195 115 -197 0 -3 5 -10 10 -17 17 -20 80 -129 80 -138 0 -5 5 -9
10 -9 6 0 10 -5 10 -10 0 -6 18 -40 40 -76 22 -36 40 -70 40 -75 0 -5 3 -9 8
-9 4 0 12 -10 18 -23 30 -60 59 -107 66 -107 4 0 8 -5 8 -11 0 -6 20 -45 45
-86 25 -40 45 -76 45 -78 0 -2 12 -23 28 -47 42 -67 50 -80 73 -123 12 -22 29
-51 39 -65 10 -14 51 -81 91 -150 41 -69 79 -132 84 -141 6 -10 21 -38 34 -63
14 -25 28 -46 33 -46 4 0 8 -5 8 -10 0 -6 11 -28 25 -50 14 -22 23 -40 20 -40
-3 0 3 -9 13 -20 10 -11 25 -33 33 -48 7 -15 54 -94 103 -177 49 -82 97 -164
107 -182 10 -17 29 -50 43 -72 15 -22 26 -45 26 -51 0 -5 5 -10 10 -10 6 0 10
-4 10 -10 0 -5 25 -51 56 -102 31 -51 65 -106 74 -123 9 -16 38 -64 64 -106
25 -42 46 -82 46 -88 0 -6 4 -11 8 -11 5 0 17 -18 27 -40 10 -22 22 -40 27
-40 4 0 8 -4 8 -9 0 -5 28 -56 61 -113 76 -126 99 -167 99 -173 0 -3 -484 -4
-1076 -3 l-1076 3 -36 65 c-19 36 -38 67 -42 70 -3 3 -12 20 -19 38 -8 17 -17
32 -22 32 -5 0 -9 4 -9 9 0 5 -25 52 -55 105 -30 52 -55 98 -55 102 0 4 -6 15
-14 23 -7 9 -24 36 -37 61 -13 25 -26 47 -29 50 -3 3 -20 34 -39 70 -19 36
-37 67 -40 70 -3 3 -13 19 -21 35 -8 17 -17 32 -20 35 -3 3 -15 23 -27 45 -21
39 -48 89 -75 136 -7 13 -15 26 -18 29 -3 3 -14 23 -26 45 -12 22 -53 96 -92
164 -40 69 -72 128 -72 133 0 4 -4 8 -10 8 -5 0 -10 4 -10 9 0 5 -49 96 -110
201 -60 106 -110 194 -110 196 0 3 -11 21 -23 42 -13 20 -35 57 -49 82 -59
104 -544 951 -581 1015 -23 39 -42 72 -42 75 0 3 -8 16 -17 30 -9 14 -62 106
-118 205 -57 99 -121 212 -144 250 -22 39 -41 72 -41 75 0 3 -8 16 -17 30 -34
52 -168 292 -168 301 0 5 -4 9 -10 9 -5 0 -10 4 -10 9 0 5 -50 96 -111 203
-132 230 -145 251 -172 303 -12 22 -25 42 -28 45 -18 15 -13 42 19 100 19 36
39 67 43 68 5 2 9 9 9 16 0 7 13 33 30 59 16 26 26 47 22 47 -4 0 -2 4 4 8 6
4 28 39 49 77 20 39 46 82 56 97 11 14 19 28 19 31 0 2 29 55 65 116 36 62 65
116 65 122 0 5 5 9 10 9 6 0 10 5 10 11 0 6 23 48 50 94 28 46 50 88 50 94 0
6 5 11 10 11 6 0 10 5 10 10 0 6 25 52 55 102 30 50 55 97 55 104 0 7 3 14 8
16 10 4 102 165 102 178 0 5 4 10 9 10 5 0 11 8 14 18 7 22 39 75 50 83 5 3 8
8 7 10 -4 8 24 59 32 59 4 0 8 9 8 20 0 11 4 20 8 20 5 0 17 19 28 41 10 23
23 47 29 53 5 6 21 33 35 59 13 26 28 47 32 47 4 0 13 -10 20 -22z m-1224
-2205 c22 -38 49 -84 59 -103 11 -19 70 -122 132 -229 61 -106 111 -195 111
-197 0 -2 17 -32 38 -66 21 -35 52 -88 69 -118 17 -30 53 -95 82 -143 28 -49
51 -91 51 -93 0 -2 12 -23 27 -47 15 -23 42 -71 61 -107 19 -36 37 -67 41 -70
3 -3 16 -23 28 -45 11 -22 30 -56 42 -75 11 -19 24 -42 28 -50 4 -8 20 -37 36
-65 17 -27 43 -75 60 -105 16 -30 36 -62 43 -71 8 -8 14 -19 14 -23 0 -4 32
-61 70 -127 39 -66 70 -122 70 -124 0 -3 16 -29 35 -60 19 -30 40 -65 45 -77
6 -13 24 -45 40 -73 17 -27 35 -59 40 -70 6 -11 14 -27 20 -35 8 -13 82 -141
112 -195 7 -11 42 -73 80 -138 37 -66 68 -121 68 -123 0 -2 16 -28 35 -59 19
-30 40 -65 46 -77 5 -13 15 -32 22 -43 7 -11 39 -67 72 -125 33 -57 65 -114
72 -125 7 -11 18 -31 25 -45 6 -14 20 -36 29 -50 9 -14 29 -47 43 -75 15 -27
38 -68 52 -90 13 -22 27 -47 31 -55 4 -8 26 -48 50 -88 24 -40 43 -75 43 -79
0 -4 6 -14 14 -22 12 -15 74 -123 100 -178 6 -13 14 -23 19 -23 4 0 7 -9 7
-20 0 -11 4 -20 9 -20 5 0 18 -19 29 -42 12 -24 33 -62 47 -85 l26 -43 -2310
0 c-1271 0 -2311 2 -2311 5 0 5 218 388 260 458 11 17 28 48 37 67 10 19 20
37 23 40 3 3 11 16 18 29 8 13 23 40 34 60 12 20 29 52 40 71 11 19 28 49 39
65 10 17 22 37 26 45 3 8 37 68 75 133 37 65 68 122 68 127 0 6 4 10 8 10 5 0
14 16 22 35 8 19 17 35 21 35 4 0 9 8 12 18 3 9 22 44 42 77 20 33 41 72 48
88 6 15 15 27 19 27 4 0 8 4 8 9 0 5 23 49 51 98 29 48 65 113 82 143 17 30
34 57 39 58 4 2 8 9 8 15 0 7 32 65 70 131 39 65 70 120 70 121 0 2 23 41 50
88 28 47 50 90 50 96 0 6 4 11 8 11 5 0 17 19 28 41 10 23 23 47 29 53 5 7 23
37 40 69 16 31 33 57 38 57 4 0 5 5 2 10 -3 6 -1 10 4 10 6 0 11 5 11 11 0 6
16 38 36 72 20 34 48 82 62 107 13 25 28 50 32 55 4 6 18 30 32 55 14 25 62
110 108 190 46 80 112 197 148 260 36 63 69 117 74 118 4 2 6 7 3 12 -3 5 0
15 7 22 7 8 18 23 24 33 39 73 50 91 54 95 5 5 23 38 64 115 12 22 24 42 27
45 4 3 9 15 13 28 4 12 12 22 17 22 5 0 9 5 9 10 0 6 15 35 33 66 54 93 95
165 139 246 24 43 44 78 44 78 1 0 20 -30 42 -67z"/>
</g>
</svg>
